<?xml version="1.0" encoding="UTF-8" standalone="no"?>
<!DOCTYPE svg PUBLIC "-//W3C//DTD SVG 1.1//EN" "http://www.w3.org/Graphics/SVG/1.1/DTD/svg11.dtd">
<svg xmlns="http://www.w3.org/2000/svg" version="1.1" viewBox="0 0 512 512">
<path fill="#78a55a" d="
  M 249.31 0.00
  L 262.56 0.00
  Q 360.62 3.67 431.84 69.92
  C 435.08 72.94 439.89 77.45 441.81 81.68
  C 449.99 99.68 431.33 118.42 413.38 109.92
  Q 410.28 108.45 405.34 103.65
  C 333.49 33.81 225.74 23.21 141.37 76.25
  C 90.05 108.51 53.89 164.03 45.05 224.10
  C 32.01 312.71 75.17 400.41 154.12 443.30
  C 242.70 491.42 353.53 471.03 418.51 393.90
  Q 468.30 334.81 469.64 255.68
  C 470.10 228.67 509.11 227.53 512.00 254.81
  L 512.00 261.56
  C 510.05 331.80 480.01 398.20 428.59 444.83
  Q 357.53 509.27 259.94 512.00
  L 250.19 512.00
  Q 149.16 508.05 77.90 439.49
  C 29.24 392.68 2.64 330.26 0.00 262.44
  L 0.00 250.69
  C 1.92 175.72 35.96 105.22 94.22 57.87
  Q 161.27 3.38 249.31 0.00
  Z"
/>
<path fill="#78a55a" d="
  M 233.75 234.69
  A 1.00 1.00 0.0 0 0 234.75 233.69
  Q 234.75 204.41 234.75 175.14
  Q 234.76 166.71 236.13 163.01
  C 242.89 144.80 269.03 145.10 275.87 163.15
  Q 277.23 166.74 277.24 173.65
  Q 277.27 203.70 277.24 233.74
  A 1.00 1.00 0.0 0 0 278.24 234.74
  Q 307.81 234.76 337.51 234.74
  Q 344.99 234.74 348.83 236.11
  C 366.76 242.51 367.40 269.82 348.40 276.09
  Q 344.90 277.25 336.48 277.25
  Q 307.43 277.25 278.26 277.25
  A 1.00 1.00 0.0 0 0 277.26 278.25
  Q 277.24 307.87 277.25 337.92
  Q 277.25 344.66 276.18 347.96
  C 270.05 366.78 242.79 367.63 236.03 348.73
  Q 234.76 345.16 234.75 337.12
  Q 234.75 307.75 234.75 278.25
  A 1.00 1.00 0.0 0 0 233.75 277.25
  Q 203.90 277.27 173.59 277.23
  Q 166.88 277.23 163.21 275.90
  C 145.41 269.44 144.47 242.64 163.26 236.02
  Q 166.89 234.74 174.90 234.75
  Q 204.39 234.79 233.75 234.69
  Z"
/>
</svg>
