<?xml version="1.0" encoding="UTF-8" standalone="no"?>
<!DOCTYPE svg PUBLIC "-//W3C//DTD SVG 1.1//EN" "http://www.w3.org/Graphics/SVG/1.1/DTD/svg11.dtd">
<svg xmlns="http://www.w3.org/2000/svg" version="1.1" viewBox="0.00 0.00 40.00 40.00">
<path fill="#78a55a" d="
  M 7.27 29.50
  L 17.95 29.50
  A 0.70 0.69 87.3 0 1 18.64 30.13
  L 18.89 32.77
  A 0.70 0.70 0.0 0 1 18.18 33.54
  L 4.94 33.18
  A 2.24 2.24 0.0 0 1 2.76 30.94
  L 2.72 9.14
  A 2.39 2.39 0.0 0 1 5.11 6.75
  L 35.16 6.75
  A 2.15 2.15 0.0 0 1 37.31 8.91
  L 37.29 19.71
  Q 37.29 20.50 36.59 20.15
  C 30.43 17.12 26.11 18.97 21.12 23.08
  Q 20.71 23.42 20.34 23.04
  L 13.89 16.49
  Q 13.53 16.13 13.01 16.14
  C 6.16 16.30 6.11 23.00 6.65 28.94
  Q 6.71 29.50 7.27 29.50
  Z
  M 33.30 13.31
  A 2.62 2.62 0.0 0 0 30.68 10.69
  A 2.62 2.62 0.0 0 0 28.06 13.31
  A 2.62 2.62 0.0 0 0 30.68 15.93
  A 2.62 2.62 0.0 0 0 33.30 13.31
  Z"
/>
<path fill="#78a55a" d="
  M 31.41 40.00
  L 29.75 40.00
  C 18.38 37.52 19.02 22.35 29.73 21.49
  C 41.59 20.54 44.12 37.38 31.41 40.00
  Z
  M 32.84 29.28
  A 0.94 0.94 0.0 0 1 32.10 28.53
  L 31.64 26.04
  A 0.94 0.94 0.0 0 0 29.79 26.03
  L 29.30 28.52
  A 0.94 0.94 0.0 0 1 28.55 29.26
  L 26.06 29.72
  A 0.94 0.94 0.0 0 0 26.05 31.57
  L 28.54 32.06
  A 0.94 0.94 0.0 0 1 29.28 32.81
  L 29.74 35.30
  A 0.94 0.94 0.0 0 0 31.59 35.31
  L 32.08 32.82
  A 0.94 0.94 0.0 0 1 32.83 32.08
  L 35.32 31.62
  A 0.94 0.94 0.0 0 0 35.33 29.77
  L 32.84 29.28
  Z"
/>
</svg>
