<?xml version="1.0" encoding="UTF-8" standalone="no"?>
<!DOCTYPE svg PUBLIC "-//W3C//DTD SVG 1.1//EN" "http://www.w3.org/Graphics/SVG/1.1/DTD/svg11.dtd">
<svg xmlns="http://www.w3.org/2000/svg" version="1.1" viewBox="0 0 512 512">
<path fill="#78a55a" d="
  M 201.06 0.00
  L 208.56 0.00
  C 321.71 2.91 413.87 96.99 409.40 211.26
  Q 406.65 281.60 361.33 335.92
  A 1.01 1.01 0.0 0 0 361.39 337.27
  Q 434.43 410.30 507.56 483.44
  Q 511.18 487.06 512.00 493.56
  L 512.00 496.31
  Q 509.78 509.88 496.19 512.00
  L 493.44 512.00
  Q 486.96 511.10 483.05 507.18
  Q 410.29 434.38 337.41 361.57
  A 1.00 0.99 -42.3 0 0 336.07 361.51
  Q 296.58 394.22 246.83 405.15
  C 192.52 417.07 136.10 404.91 90.59 374.57
  C 34.95 337.49 1.59 275.08 0.00 208.44
  L 0.00 201.44
  C 2.52 90.14 90.45 3.29 201.06 0.00
  Z
  M 269.52 362.56
  C 346.64 331.00 389.93 246.58 370.93 165.81
  C 355.12 98.60 299.25 46.40 230.33 36.08
  C 173.75 27.61 117.23 47.84 78.79 89.93
  C 29.05 144.37 19.90 225.19 56.54 289.20
  C 99.05 363.46 189.80 395.18 269.52 362.56
  Z"
/>
<path fill="#78a55a" d="
  M 207.22 51.36
  C 217.08 56.81 214.36 67.94 203.38 68.23
  C 128.90 70.21 70.98 127.15 68.30 201.66
  Q 68.12 206.43 67.38 208.21
  C 64.50 215.17 54.47 214.81 51.85 207.75
  Q 51.21 206.02 51.26 202.69
  C 52.57 117.43 122.19 50.84 206.74 51.23
  Q 206.99 51.23 207.22 51.36
  Z"
/>
</svg>
