<?xml version="1.0" encoding="UTF-8" standalone="no"?>
<!DOCTYPE svg PUBLIC "-//W3C//DTD SVG 1.1//EN" "http://www.w3.org/Graphics/SVG/1.1/DTD/svg11.dtd">
<svg xmlns="http://www.w3.org/2000/svg" version="1.1" viewBox="0.00 0.00 56.00 56.00">
<path fill="#78a55a" d="
  M 38.79 11.01
  C 42.97 11.64 50.20 9.17 50.28 15.99
  Q 50.44 29.13 50.19 42.24
  Q 50.11 46.45 46.24 46.46
  Q 27.60 46.49 9.01 46.51
  A 3.21 3.21 0.0 0 1 5.81 43.57
  C 5.01 34.00 5.63 24.12 5.78 14.84
  A 3.64 3.64 0.0 0 1 9.41 11.26
  L 16.54 11.24
  A 1.16 1.12 16.5 0 0 17.46 10.76
  L 20.63 6.29
  A 0.87 0.85 15.6 0 1 21.30 5.92
  Q 26.61 5.61 31.87 5.69
  C 35.40 5.75 36.85 7.31 37.99 10.36
  Q 38.20 10.92 38.79 11.01
  Z
  M 41.01 27.97
  A 13.04 13.04 0.0 0 0 27.97 14.93
  A 13.04 13.04 0.0 0 0 14.93 27.97
  A 13.04 13.04 0.0 0 0 27.97 41.01
  A 13.04 13.04 0.0 0 0 41.01 27.97
  Z
  M 46.66 16.78
  A 1.80 1.80 0.0 0 0 44.86 14.98
  A 1.80 1.80 0.0 0 0 43.06 16.78
  A 1.80 1.80 0.0 0 0 44.86 18.58
  A 1.80 1.80 0.0 0 0 46.66 16.78
  Z"
/>
<rect fill="#78a55a" x="-2.55" y="-0.64" transform="translate(12.17,8.42) rotate(0.8)" width="5.10" height="1.28" rx="0.48"/>
<circle fill="#78a55a" cx="28.01" cy="27.99" r="9.32"/>
</svg>
