<?xml version="1.0" encoding="UTF-8" standalone="no"?>
<!DOCTYPE svg PUBLIC "-//W3C//DTD SVG 1.1//EN" "http://www.w3.org/Graphics/SVG/1.1/DTD/svg11.dtd">
<svg xmlns="http://www.w3.org/2000/svg" version="1.1" viewBox="0 0 512 512">
<g stroke-width="2.00" fill="none" stroke-linecap="butt">
<path stroke="#bcd2ad" vector-effect="non-scaling-stroke" d="
  M 190.56 281.44
  Q 185.15 281.49 179.75 281.81
  C 165.68 282.66 156.59 292.20 159.84 306.80
  Q 161.83 315.72 170.29 318.71
  Q 175.74 320.64 182.24 321.09
  A 0.99 0.99 0.0 0 1 183.15 322.28
  Q 179.06 342.38 175.31 362.53
  C 172.80 376.00 174.86 387.92 191.01 389.67
  C 209.14 391.63 211.30 377.81 214.25 363.98
  Q 218.72 342.99 222.99 321.80
  A 1.00 1.00 0.0 0 1 223.97 321.00
  L 260.93 321.00
  A 1.00 1.00 0.0 0 1 261.91 322.20
  Q 258.15 341.00 254.55 359.83
  C 252.12 372.48 251.99 386.06 266.97 389.25
  C 282.42 392.54 288.95 383.65 291.73 370.48
  Q 296.84 346.28 301.74 321.92
  A 1.01 1.00 -84.9 0 1 302.70 321.11
  Q 315.60 320.88 328.50 320.95
  C 337.75 320.99 347.19 318.80 351.19 309.87
  C 357.72 295.27 347.24 282.45 331.75 281.79
  Q 321.11 281.34 310.82 281.53
  A 1.01 1.01 0.0 0 1 309.82 280.32
  L 319.97 230.94
  A 1.01 1.00 -82.6 0 1 321.00 230.14
  C 335.25 230.88 352.58 229.51 352.93 210.63
  Q 353.19 196.45 337.52 192.22
  Q 335.01 191.54 328.87 191.22
  A 1.00 0.99 7.2 0 1 327.94 190.03
  Q 332.16 169.00 335.97 147.90
  C 338.88 131.84 332.17 120.42 314.31 122.41
  C 301.75 123.80 299.68 134.50 297.48 144.76
  Q 292.66 167.28 287.96 189.95
  A 1.01 1.00 -83.9 0 1 286.98 190.75
  L 250.38 190.75
  A 1.00 1.00 0.0 0 1 249.40 189.55
  Q 257.48 150.17 258.54 141.51
  C 259.59 132.90 254.30 125.73 246.09 123.25
  C 238.94 121.09 228.64 122.95 224.52 129.55
  Q 220.54 135.95 218.57 145.47
  Q 213.99 167.73 209.55 189.96
  A 1.01 1.00 5.6 0 1 208.56 190.77
  Q 195.28 190.69 182.07 190.91
  C 169.43 191.12 158.61 197.21 159.08 211.15
  C 159.43 221.68 168.74 229.56 179.00 230.00
  Q 189.74 230.45 200.16 230.21
  A 1.00 1.00 0.0 0 1 201.16 231.40
  L 191.53 280.63
  A 1.00 0.99 -84.3 0 1 190.56 281.44"
/>
<path stroke="#bcd2ad" vector-effect="non-scaling-stroke" d="
  M 275.18 256.09
  Q 277.62 243.86 279.89 231.43
  A 1.01 1.00 5.0 0 0 278.90 230.25
  L 241.96 230.25
  A 1.00 1.00 0.0 0 0 240.98 231.05
  L 231.05 280.30
  A 1.00 1.00 0.0 0 0 232.03 281.50
  L 269.34 281.50
  A 1.00 1.00 0.0 0 0 270.32 280.69
  Q 272.74 268.35 275.18 256.09"
/>
</g>
<path fill="#78a55a" d="
  M 249.31 0.00
  L 262.56 0.00
  C 400.05 4.59 508.48 113.33 512.00 251.06
  L 512.00 260.56
  C 508.78 399.38 398.37 508.99 259.94 512.00
  L 250.19 512.00
  C 113.27 507.66 4.17 400.03 0.00 262.44
  L 0.00 250.69
  C 3.55 113.31 112.21 4.54 249.31 0.00
  Z
  M 190.56 281.44
  Q 185.15 281.49 179.75 281.81
  C 165.68 282.66 156.59 292.20 159.84 306.80
  Q 161.83 315.72 170.29 318.71
  Q 175.74 320.64 182.24 321.09
  A 0.99 0.99 0.0 0 1 183.15 322.28
  Q 179.06 342.38 175.31 362.53
  C 172.80 376.00 174.86 387.92 191.01 389.67
  C 209.14 391.63 211.30 377.81 214.25 363.98
  Q 218.72 342.99 222.99 321.80
  A 1.00 1.00 0.0 0 1 223.97 321.00
  L 260.93 321.00
  A 1.00 1.00 0.0 0 1 261.91 322.20
  Q 258.15 341.00 254.55 359.83
  C 252.12 372.48 251.99 386.06 266.97 389.25
  C 282.42 392.54 288.95 383.65 291.73 370.48
  Q 296.84 346.28 301.74 321.92
  A 1.01 1.00 -84.9 0 1 302.70 321.11
  Q 315.60 320.88 328.50 320.95
  C 337.75 320.99 347.19 318.80 351.19 309.87
  C 357.72 295.27 347.24 282.45 331.75 281.79
  Q 321.11 281.34 310.82 281.53
  A 1.01 1.01 0.0 0 1 309.82 280.32
  L 319.97 230.94
  A 1.01 1.00 -82.6 0 1 321.00 230.14
  C 335.25 230.88 352.58 229.51 352.93 210.63
  Q 353.19 196.45 337.52 192.22
  Q 335.01 191.54 328.87 191.22
  A 1.00 0.99 7.2 0 1 327.94 190.03
  Q 332.16 169.00 335.97 147.90
  C 338.88 131.84 332.17 120.42 314.31 122.41
  C 301.75 123.80 299.68 134.50 297.48 144.76
  Q 292.66 167.28 287.96 189.95
  A 1.01 1.00 -83.9 0 1 286.98 190.75
  L 250.38 190.75
  A 1.00 1.00 0.0 0 1 249.40 189.55
  Q 257.48 150.17 258.54 141.51
  C 259.59 132.90 254.30 125.73 246.09 123.25
  C 238.94 121.09 228.64 122.95 224.52 129.55
  Q 220.54 135.95 218.57 145.47
  Q 213.99 167.73 209.55 189.96
  A 1.01 1.00 5.6 0 1 208.56 190.77
  Q 195.28 190.69 182.07 190.91
  C 169.43 191.12 158.61 197.21 159.08 211.15
  C 159.43 221.68 168.74 229.56 179.00 230.00
  Q 189.74 230.45 200.16 230.21
  A 1.00 1.00 0.0 0 1 201.16 231.40
  L 191.53 280.63
  A 1.00 0.99 -84.3 0 1 190.56 281.44
  Z"
/>
<path fill="#ffffff" d="
  M 191.53 280.63
  L 201.16 231.40
  A 1.00 1.00 0.0 0 0 200.16 230.21
  Q 189.74 230.45 179.00 230.00
  C 168.74 229.56 159.43 221.68 159.08 211.15
  C 158.61 197.21 169.43 191.12 182.07 190.91
  Q 195.28 190.69 208.56 190.77
  A 1.01 1.00 5.6 0 0 209.55 189.96
  Q 213.99 167.73 218.57 145.47
  Q 220.54 135.95 224.52 129.55
  C 228.64 122.95 238.94 121.09 246.09 123.25
  C 254.30 125.73 259.59 132.90 258.54 141.51
  Q 257.48 150.17 249.40 189.55
  A 1.00 1.00 0.0 0 0 250.38 190.75
  L 286.98 190.75
  A 1.01 1.00 -83.9 0 0 287.96 189.95
  Q 292.66 167.28 297.48 144.76
  C 299.68 134.50 301.75 123.80 314.31 122.41
  C 332.17 120.42 338.88 131.84 335.97 147.90
  Q 332.16 169.00 327.94 190.03
  A 1.00 0.99 7.2 0 0 328.87 191.22
  Q 335.01 191.54 337.52 192.22
  Q 353.19 196.45 352.93 210.63
  C 352.58 229.51 335.25 230.88 321.00 230.14
  A 1.01 1.00 -82.6 0 0 319.97 230.94
  L 309.82 280.32
  A 1.01 1.01 0.0 0 0 310.82 281.53
  Q 321.11 281.34 331.75 281.79
  C 347.24 282.45 357.72 295.27 351.19 309.87
  C 347.19 318.80 337.75 320.99 328.50 320.95
  Q 315.60 320.88 302.70 321.11
  A 1.01 1.00 -84.9 0 0 301.74 321.92
  Q 296.84 346.28 291.73 370.48
  C 288.95 383.65 282.42 392.54 266.97 389.25
  C 251.99 386.06 252.12 372.48 254.55 359.83
  Q 258.15 341.00 261.91 322.20
  A 1.00 1.00 0.0 0 0 260.93 321.00
  L 223.97 321.00
  A 1.00 1.00 0.0 0 0 222.99 321.80
  Q 218.72 342.99 214.25 363.98
  C 211.30 377.81 209.14 391.63 191.01 389.67
  C 174.86 387.92 172.80 376.00 175.31 362.53
  Q 179.06 342.38 183.15 322.28
  A 0.99 0.99 0.0 0 0 182.24 321.09
  Q 175.74 320.64 170.29 318.71
  Q 161.83 315.72 159.84 306.80
  C 156.59 292.20 165.68 282.66 179.75 281.81
  Q 185.15 281.49 190.56 281.44
  A 1.00 0.99 -84.3 0 0 191.53 280.63
  Z
  M 275.18 256.09
  Q 277.62 243.86 279.89 231.43
  A 1.01 1.00 5.0 0 0 278.90 230.25
  L 241.96 230.25
  A 1.00 1.00 0.0 0 0 240.98 231.05
  L 231.05 280.30
  A 1.00 1.00 0.0 0 0 232.03 281.50
  L 269.34 281.50
  A 1.00 1.00 0.0 0 0 270.32 280.69
  Q 272.74 268.35 275.18 256.09
  Z"
/>
<path fill="#78a55a" d="
  M 275.18 256.09
  Q 272.74 268.35 270.32 280.69
  A 1.00 1.00 0.0 0 1 269.34 281.50
  L 232.03 281.50
  A 1.00 1.00 0.0 0 1 231.05 280.30
  L 240.98 231.05
  A 1.00 1.00 0.0 0 1 241.96 230.25
  L 278.90 230.25
  A 1.01 1.00 5.0 0 1 279.89 231.43
  Q 277.62 243.86 275.18 256.09
  Z"
/>
</svg>
