<?xml version="1.0" encoding="UTF-8" standalone="no"?>
<!DOCTYPE svg PUBLIC "-//W3C//DTD SVG 1.1//EN" "http://www.w3.org/Graphics/SVG/1.1/DTD/svg11.dtd">
<svg xmlns="http://www.w3.org/2000/svg" version="1.1" viewBox="0.00 0.00 543.00 460.00">
<path fill="#79a55a" d="
  M 524.6830 234.1940
  A 227.88 227.64 0.7 0 1 294.0389 459.0330
  A 227.88 227.64 0.7 0 1 68.9570 228.6260
  A 227.88 227.64 0.7 0 1 299.6011 3.7870
  A 227.88 227.64 0.7 0 1 524.6830 234.1940
  Z
  M 246.98 208.61
  Q 248.14 208.65 247.91 209.79
  L 239.30 253.21
  A 0.91 0.91 0.0 0 1 238.42 253.95
  C 229.68 254.09 219.20 253.81 213.48 262.02
  Q 208.82 268.71 211.52 277.56
  C 214.33 286.75 222.53 288.79 231.03 289.41
  A 0.82 0.82 0.0 0 1 231.77 290.39
  Q 228.12 309.48 224.68 328.53
  C 223.11 337.21 224.72 346.36 233.77 349.17
  C 251.22 354.59 256.17 344.49 259.22 329.75
  Q 260.93 321.51 267.62 289.99
  A 0.78 0.77 5.6 0 1 268.37 289.38
  L 301.14 289.33
  A 0.81 0.81 0.0 0 1 301.94 290.30
  Q 298.34 309.11 294.93 328.08
  C 293.19 337.77 295.16 346.71 305.54 349.59
  C 318.63 353.21 325.89 346.29 328.41 334.43
  Q 333.10 312.31 337.68 290.11
  Q 337.84 289.33 338.64 289.33
  Q 351.05 289.31 363.79 289.09
  C 391.06 288.60 388.57 254.30 363.98 254.27
  Q 354.64 254.25 345.87 253.92
  Q 344.68 253.87 344.91 252.70
  L 353.82 209.18
  A 0.75 0.75 0.0 0 1 354.53 208.58
  C 366.15 208.02 381.88 209.20 383.14 192.25
  C 384.13 179.06 373.69 174.40 362.08 173.58
  A 1.08 1.08 0.0 0 1 361.09 172.31
  Q 364.76 152.84 368.30 132.91
  C 370.69 119.47 362.63 110.91 349.08 112.37
  C 339.95 113.35 336.44 120.22 334.64 128.43
  Q 329.86 150.33 325.35 172.15
  A 1.38 1.38 0.0 0 1 324.00 173.25
  L 292.22 173.25
  A 1.02 1.02 0.0 0 1 291.21 172.09
  Q 291.59 169.35 292.17 166.59
  Q 295.97 148.62 298.86 130.48
  C 300.93 117.46 288.88 110.02 277.13 113.14
  C 268.32 115.48 265.54 123.83 263.84 131.77
  Q 259.48 152.20 255.47 172.46
  A 1.03 1.02 5.7 0 1 254.45 173.29
  Q 241.54 173.07 228.45 173.66
  C 216.90 174.17 208.53 182.65 210.75 194.18
  C 214.10 211.50 235.14 208.15 246.98 208.61
  Z"
/>
<path fill="#79a55a" d="
  M 284.51 208.50
  L 317.01 208.50
  A 1.11 1.11 0.0 0 1 318.10 209.82
  L 309.69 253.35
  A 1.11 1.11 0.0 0 1 308.60 254.25
  L 275.68 254.25
  A 1.11 1.11 0.0 0 1 274.59 252.92
  L 283.42 209.39
  A 1.11 1.11 0.0 0 1 284.51 208.50
  Z"
/>
</svg>
