<?xml version="1.0" encoding="UTF-8" standalone="no"?>
<!DOCTYPE svg PUBLIC "-//W3C//DTD SVG 1.1//EN" "http://www.w3.org/Graphics/SVG/1.1/DTD/svg11.dtd">
<svg xmlns="http://www.w3.org/2000/svg" version="1.1" viewBox="0 0 60 60">
<path fill="#6f9f4e" fill-opacity="0.941" d="
  M 38.05 20.73
  L 38.02 21.08
  A 0.99 0.99 0.0 0 1 37.09 21.99
  Q 36.04 22.06 35.98 23.03
  A 1.00 1.00 0.0 0 1 35.03 23.97
  Q 34.20 24.01 34.00 24.93
  A 1.04 1.01 75.3 0 1 33.71 25.44
  L 29.63 29.26
  A 1.01 1.01 0.0 0 0 29.62 30.71
  Q 38.15 39.03 46.53 47.52
  C 49.95 50.99 46.68 53.50 43.27 50.19
  Q 33.94 41.16 24.90 31.65
  Q 23.26 29.93 24.95 28.21
  L 32.38 20.62
  Q 32.62 20.37 33.27 20.01
  Q 33.95 19.64 34.12 18.86
  A 1.00 0.99 -89.5 0 1 34.89 18.10
  L 35.22 18.03
  A 1.00 1.00 0.0 0 0 36.02 17.13
  Q 36.09 16.07 37.07 15.99
  A 1.00 1.00 0.0 0 0 37.99 15.05
  Q 38.05 14.05 39.05 13.99
  A 1.01 1.00 -0.0 0 0 40.00 13.05
  Q 40.05 12.05 41.05 11.99
  A 1.00 1.00 0.0 0 0 41.99 11.06
  Q 42.05 10.08 42.99 9.99
  A 1.00 1.00 0.0 0 0 43.88 9.18
  C 44.17 7.59 49.25 7.09 47.63 11.35
  A 1.02 1.01 4.7 0 1 46.88 11.98
  Q 45.98 12.15 45.96 13.00
  A 1.00 0.99 0.3 0 1 44.96 13.98
  Q 44.02 13.98 43.99 14.96
  A 0.99 0.99 0.0 0 1 43.05 15.93
  Q 42.02 15.99 41.98 16.99
  A 1.00 0.99 2.0 0 1 40.95 17.94
  Q 39.97 17.92 40.00 19.18
  A 0.80 0.79 89.6 0 1 39.20 20.00
  L 38.85 20.00
  A 0.79 0.79 0.0 0 0 38.05 20.73
  Z"
/>
<path fill="#6f9f4e" fill-opacity="0.941" d="
  M 22.92 37.91
  C 23.43 38.45 39.02 52.21 32.51 51.78
  C 28.86 51.54 13.26 34.16 9.90 30.65
  A 1.01 1.01 0.0 0 1 9.90 29.27
  Q 19.57 19.09 30.02 9.01
  Q 31.33 7.75 33.07 8.24
  A 1.02 1.00 89.2 0 1 33.76 8.93
  Q 34.46 11.33 32.53 12.25
  A 1.02 1.01 83.8 0 0 31.99 12.93
  Q 31.81 13.72 31.20 14.06
  Q 30.41 14.50 30.33 14.58
  L 15.87 29.28
  A 1.00 1.00 0.0 0 0 15.87 30.69
  Q 19.45 34.30 22.92 37.91
  Z"
/>
</svg>
