<?xml version="1.0" encoding="UTF-8" standalone="no"?>
<!DOCTYPE svg PUBLIC "-//W3C//DTD SVG 1.1//EN" "http://www.w3.org/Graphics/SVG/1.1/DTD/svg11.dtd">
<svg xmlns="http://www.w3.org/2000/svg" version="1.1" viewBox="0 0 60 60">
<path fill="#78a55a" d="
  M 53.93 30.00
  A 23.93 23.93 0.0 0 1 30.00 53.93
  A 23.93 23.93 0.0 0 1 6.07 30.00
  A 23.93 23.93 0.0 0 1 30.00 6.07
  A 23.93 23.93 0.0 0 1 53.93 30.00
  Z
  M 27.96 33.00
  Q 28.03 36.12 27.98 39.27
  Q 27.93 42.87 31.29 41.51
  A 1.00 1.00 0.0 0 0 31.91 40.60
  L 32.03 33.10
  A 1.01 1.01 0.0 0 1 32.95 32.12
  Q 35.96 31.86 39.02 32.01
  Q 42.90 32.19 41.51 28.72
  A 1.01 0.99 79.3 0 0 40.60 28.09
  L 33.10 27.97
  A 1.01 1.01 0.0 0 1 32.12 27.05
  Q 31.89 24.28 31.98 21.49
  C 32.05 19.30 31.45 17.10 28.65 18.55
  A 1.01 1.00 -13.7 0 0 28.11 19.42
  L 27.97 26.94
  A 1.00 1.00 0.0 0 1 27.01 27.92
  Q 23.89 28.07 20.73 27.99
  Q 17.17 27.90 18.47 31.29
  A 1.01 1.00 79.5 0 0 19.39 31.93
  L 26.97 32.02
  A 1.01 1.00 0.0 0 1 27.96 33.00
  Z"
/>
</svg>
