<?xml version="1.0" encoding="UTF-8" standalone="no"?>
<!DOCTYPE svg PUBLIC "-//W3C//DTD SVG 1.1//EN" "http://www.w3.org/Graphics/SVG/1.1/DTD/svg11.dtd">
<svg xmlns="http://www.w3.org/2000/svg" version="1.1" viewBox="0 0 111 106">
<path fill="#47a15b" d="
  M 69.23 26.45
  C 73.72 19.17 81.66 19.85 85.96 26.74
  Q 90.81 34.49 82.23 40.91
  A 1.00 1.00 0.0 0 0 81.87 42.01
  C 86.88 57.92 83.50 77.17 64.81 81.72
  Q 60.69 82.72 56.22 82.72
  A 1.00 1.00 0.0 0 1 55.22 81.71
  L 55.35 68.82
  A 0.98 0.98 0.0 0 1 55.86 67.96
  Q 60.24 65.54 62.20 60.95
  A 1.01 1.01 0.0 0 0 61.51 59.58
  Q 52.50 57.37 43.45 59.75
  A 1.00 1.00 0.0 0 0 42.85 61.23
  Q 45.45 65.55 49.49 68.48
  A 1.01 1.00 -72.0 0 1 49.90 69.29
  L 49.90 81.64
  A 1.00 1.00 0.0 0 1 48.95 82.64
  C 35.14 83.34 23.71 74.92 21.65 61.09
  Q 20.19 51.27 23.41 42.05
  A 1.00 1.00 0.0 0 0 23.01 40.88
  Q 13.49 34.79 20.59 25.09
  Q 24.36 19.93 30.24 21.76
  Q 33.93 22.90 36.09 26.43
  A 1.00 0.99 58.7 0 0 37.46 26.77
  Q 52.64 17.53 67.86 26.78
  A 1.00 1.00 0.0 0 0 69.23 26.45
  Z
  M 31.24 42.71
  C 28.59 48.13 32.39 55.41 38.75 53.97
  C 42.72 53.08 45.75 47.94 47.41 44.35
  C 50.27 38.16 44.38 30.91 38.14 34.01
  C 35.18 35.47 32.49 40.14 31.24 42.71
  Z
  M 68.31 34.94
  C 64.56 31.65 59.85 33.36 57.85 37.50
  C 55.64 42.04 58.29 44.90 60.40 48.69
  C 66.58 59.77 78.87 51.57 73.40 41.64
  Q 71.02 37.31 68.31 34.94
  Z"
/>
<circle fill="#47a15b" cx="40.52" cy="41.34" r="2.48"/>
<circle fill="#47a15b" cx="64.58" cy="41.39" r="2.41"/>
</svg>
