<?xml version="1.0" encoding="UTF-8" standalone="no"?>
<!DOCTYPE svg PUBLIC "-//W3C//DTD SVG 1.1//EN" "http://www.w3.org/Graphics/SVG/1.1/DTD/svg11.dtd">
<svg xmlns="http://www.w3.org/2000/svg" version="1.1" viewBox="0 0 60 60">
<path fill="#78a55a" d="
  M 51.9487 47.9783
  A 4.05 4.05 0.0 0 1 47.8916 52.0213
  L 12.0316 51.9587
  A 4.05 4.05 0.0 0 1 7.9887 47.9016
  L 8.0513 12.0217
  A 4.05 4.05 0.0 0 1 12.1084 7.9787
  L 47.9684 8.0413
  A 4.05 4.05 0.0 0 1 52.0113 12.0984
  L 51.9487 47.9783
  Z
  M 15.9868 12.7618
  A 0.81 0.81 0.0 0 0 15.1614 11.9675
  L 12.7818 12.0132
  A 0.81 0.81 0.0 0 0 11.9875 12.8386
  L 12.0332 15.2182
  A 0.81 0.81 0.0 0 0 12.8586 16.0125
  L 15.2382 15.9668
  A 0.81 0.81 0.0 0 0 16.0325 15.1414
  L 15.9868 12.7618
  Z
  M 23.9918 12.5057
  A 0.52 0.52 0.0 0 0 23.4655 11.9921
  L 20.5057 12.0282
  A 0.52 0.52 0.0 0 0 19.9921 12.5545
  L 20.0282 15.5143
  A 0.52 0.52 0.0 0 0 20.5545 16.0279
  L 23.5143 15.9918
  A 0.52 0.52 0.0 0 0 24.0279 15.4655
  L 23.9918 12.5057
  Z
  M 31.9918 12.5057
  A 0.52 0.52 0.0 0 0 31.4655 11.9921
  L 28.5057 12.0282
  A 0.52 0.52 0.0 0 0 27.9921 12.5545
  L 28.0282 15.5143
  A 0.52 0.52 0.0 0 0 28.5545 16.0279
  L 31.5143 15.9918
  A 0.52 0.52 0.0 0 0 32.0279 15.4655
  L 31.9918 12.5057
  Z
  M 39.9834 12.4091
  A 0.43 0.43 0.0 0 0 39.5490 11.9837
  L 36.4091 12.0166
  A 0.43 0.43 0.0 0 0 35.9837 12.4510
  L 36.0166 15.5909
  A 0.43 0.43 0.0 0 0 36.4510 16.0163
  L 39.5909 15.9834
  A 0.43 0.43 0.0 0 0 40.0163 15.5490
  L 39.9834 12.4091
  Z
  M 48.0341 13.0394
  A 1.00 1.00 0.0 0 0 47.0588 12.0153
  L 45.0394 11.9659
  A 1.00 1.00 0.0 0 0 44.0153 12.9412
  L 43.9659 14.9606
  A 1.00 1.00 0.0 0 0 44.9412 15.9847
  L 46.9606 16.0341
  A 1.00 1.00 0.0 0 0 47.9847 15.0588
  L 48.0341 13.0394
  Z
  M 47.9967 20.6386
  A 0.67 0.67 0.0 0 0 47.3255 19.9698
  L 12.6456 20.0303
  A 0.67 0.67 0.0 0 0 11.9768 20.7015
  L 12.0233 47.3614
  A 0.67 0.67 0.0 0 0 12.6945 48.0302
  L 47.3744 47.9697
  A 0.67 0.67 0.0 0 0 48.0432 47.2985
  L 47.9967 20.6386
  Z"
/>
<rect fill="#78a55a" x="-5.76" y="-1.99" transform="translate(22.00,26.00) rotate(0.1)" width="11.52" height="3.98" rx="1.48"/>
<rect fill="#78a55a" x="-10.84" y="-1.98" transform="translate(32.93,34.01) rotate(0.3)" width="21.68" height="3.96" rx="1.70"/>
<rect fill="#78a55a" x="16.24" y="40.01" width="17.52" height="3.98" rx="1.53"/>
</svg>
