<?xml version="1.0" encoding="UTF-8" standalone="no"?>
<!DOCTYPE svg PUBLIC "-//W3C//DTD SVG 1.1//EN" "http://www.w3.org/Graphics/SVG/1.1/DTD/svg11.dtd">
<svg xmlns="http://www.w3.org/2000/svg" version="1.1" viewBox="0 0 60 60">
<path fill="#78a55a" d="
  M 50.05 27.00
  Q 49.95 37.26 49.92 47.49
  Q 49.90 51.93 45.50 51.95
  Q 29.75 52.01 14.00 51.99
  C 10.83 51.99 10.01 49.59 10.01 46.73
  Q 10.00 36.87 9.99 27.00
  A 1.01 1.00 -86.8 0 0 9.10 26.00
  L 7.31 25.81
  A 1.02 1.00 -14.2 0 1 6.60 25.40
  C 5.70 24.13 6.13 22.93 7.31 21.97
  Q 18.21 13.09 29.37 3.95
  A 1.01 1.00 44.7 0 1 30.64 3.95
  L 38.64 10.52
  Q 40.13 11.74 39.95 9.82
  Q 39.45 4.58 45.20 6.40
  A 1.02 1.01 -81.9 0 1 45.90 7.34
  L 46.05 16.15
  A 0.97 0.97 0.0 0 0 46.42 16.91
  L 53.38 22.50
  A 1.03 1.03 0.0 0 1 53.74 23.16
  Q 54.16 26.38 51.17 26.02
  A 1.00 1.00 0.0 0 0 50.05 27.00
  Z
  M 35.9866 32.2995
  A 0.31 0.31 0.0 0 0 35.6760 31.9901
  L 24.2960 32.0099
  A 0.31 0.31 0.0 0 0 23.9866 32.3205
  L 24.0134 47.7005
  A 0.31 0.31 0.0 0 0 24.3240 48.0099
  L 35.7040 47.9901
  A 0.31 0.31 0.0 0 0 36.0134 47.6795
  L 35.9866 32.2995
  Z"
/>
</svg>
