<?xml version="1.0" encoding="UTF-8" standalone="no"?>
<!DOCTYPE svg PUBLIC "-//W3C//DTD SVG 1.1//EN" "http://www.w3.org/Graphics/SVG/1.1/DTD/svg11.dtd">
<svg xmlns="http://www.w3.org/2000/svg" version="1.1" viewBox="0 0 60 60">
<path fill="#78a55a" d="
  M 60.00 29.56
  L 60.00 30.31
  Q 56.00 35.41 51.06 39.66
  A 1.01 1.01 0.0 0 1 50.51 39.89
  C 47.63 40.18 47.43 37.79 49.05 36.12
  Q 50.41 34.71 51.84 33.41
  Q 53.35 32.02 51.30 32.02
  L 42.00 32.00
  L 41.89 29.05
  A 1.01 1.00 89.7 0 0 40.92 28.08
  Q 34.08 27.90 27.21 28.03
  C 25.02 28.08 23.06 28.69 24.57 31.47
  A 1.00 0.99 -13.9 0 0 25.45 32.00
  L 42.00 32.00
  Q 42.03 41.22 41.96 50.43
  C 41.93 53.18 39.25 53.97 36.77 53.98
  Q 15.14 54.06 10.00 53.99
  C 6.81 53.94 6.01 51.63 6.01 48.74
  Q 5.99 29.37 6.01 10.00
  C 6.01 6.83 8.42 6.01 11.28 6.01
  Q 24.39 5.99 37.50 5.94
  C 41.27 5.93 42.01 8.34 41.99 11.71
  Q 41.95 19.37 42.07 27.03
  A 1.00 1.00 0.0 0 0 43.08 28.01
  L 51.36 27.97
  Q 53.36 27.95 51.91 26.58
  L 48.38 23.25
  A 1.06 1.06 0.0 0 1 48.08 22.65
  Q 47.75 20.10 50.27 19.99
  A 1.00 0.99 -23.0 0 1 51.03 20.29
  L 60.00 29.56
  Z"
/>
</svg>
