<?xml version="1.0" encoding="UTF-8" standalone="no"?>
<!DOCTYPE svg PUBLIC "-//W3C//DTD SVG 1.1//EN" "http://www.w3.org/Graphics/SVG/1.1/DTD/svg11.dtd">
<svg xmlns="http://www.w3.org/2000/svg" version="1.1" viewBox="0 0 60 60">
<path fill="#78a559" d="
  M 42.19 39.48
  C 45.82 42.80 49.25 46.31 52.62 49.70
  C 54.30 51.41 54.87 54.42 51.21 53.79
  A 1.02 0.96 70.7 0 1 50.67 53.51
  L 39.44 42.22
  A 1.00 0.99 -37.3 0 0 38.23 42.06
  Q 22.58 51.09 11.53 39.53
  C 0.27 27.74 7.42 8.50 23.24 6.18
  C 30.07 5.18 36.75 7.95 41.22 13.30
  Q 50.42 24.31 42.01 38.23
  A 1.00 1.00 0.0 0 0 42.19 39.48
  Z
  M 41.96 26.00
  A 15.96 15.96 0.0 0 0 26.00 10.04
  A 15.96 15.96 0.0 0 0 10.04 26.00
  A 15.96 15.96 0.0 0 0 26.00 41.96
  A 15.96 15.96 0.0 0 0 41.96 26.00
  Z"
/>
</svg>
