<?xml version="1.0" encoding="UTF-8" standalone="no"?>
<!DOCTYPE svg PUBLIC "-//W3C//DTD SVG 1.1//EN" "http://www.w3.org/Graphics/SVG/1.1/DTD/svg11.dtd">
<svg xmlns="http://www.w3.org/2000/svg" version="1.1" viewBox="0 0 60 60">
<path fill="#78a55a" d="
  M 9.74 35.55
  L 3.32 34.34
  A 1.01 1.01 0.0 0 1 2.50 33.34
  L 2.50 26.48
  A 1.01 1.01 0.0 0 1 3.36 25.48
  L 9.58 24.56
  A 1.01 1.01 0.0 0 0 10.35 23.99
  L 11.88 20.69
  A 1.01 1.01 0.0 0 0 11.79 19.69
  L 7.95 14.13
  A 1.01 1.01 0.0 0 1 8.07 12.83
  L 12.92 8.02
  A 1.01 1.01 0.0 0 1 14.21 7.91
  L 19.72 11.77
  A 1.01 1.01 0.0 0 0 20.70 11.87
  L 23.88 10.50
  A 1.01 1.01 0.0 0 0 24.47 9.74
  L 25.59 3.34
  A 1.01 1.01 0.0 0 1 26.59 2.50
  L 33.38 2.50
  A 1.01 1.01 0.0 0 1 34.37 3.33
  L 35.54 9.80
  A 1.01 1.01 0.0 0 0 36.15 10.56
  L 39.36 11.86
  A 1.01 1.01 0.0 0 0 40.32 11.75
  L 45.71 7.93
  A 1.01 1.01 0.0 0 1 47.00 8.03
  L 51.95 12.89
  A 1.01 1.01 0.0 0 1 52.07 14.20
  L 48.18 19.63
  A 1.01 1.01 0.0 0 0 48.07 20.59
  L 49.36 23.80
  A 1.01 1.01 0.0 0 0 50.13 24.41
  L 56.78 25.55
  A 1.01 1.01 0.0 0 1 57.62 26.54
  L 57.65 33.36
  A 1.01 1.01 0.0 0 1 56.82 34.35
  L 50.15 35.57
  A 1.01 1.01 0.0 0 0 49.41 36.17
  L 48.07 39.26
  A 1.01 1.01 0.0 0 0 48.18 40.24
  L 52.11 45.80
  A 1.01 1.01 0.0 0 1 52.00 47.10
  L 47.16 51.94
  A 1.01 1.01 0.0 0 1 45.87 52.06
  L 40.20 48.11
  A 1.01 1.01 0.0 0 0 39.19 48.02
  L 36.06 49.53
  A 1.01 1.01 0.0 0 0 35.50 50.26
  L 34.35 56.84
  A 1.01 1.01 0.0 0 1 33.34 57.67
  L 26.53 57.61
  A 1.01 1.01 0.0 0 1 25.54 56.77
  L 24.40 50.27
  A 1.01 1.01 0.0 0 0 23.83 49.53
  L 20.80 48.11
  A 1.01 1.01 0.0 0 0 19.81 48.19
  L 14.08 52.02
  A 1.01 1.01 0.0 0 1 12.80 51.89
  L 7.97 46.99
  A 1.01 1.01 0.0 0 1 7.88 45.69
  L 11.77 40.36
  A 1.01 1.01 0.0 0 0 11.88 39.36
  L 10.48 36.14
  A 1.01 1.01 0.0 0 0 9.74 35.55
  Z
  M 38.32 29.99
  A 8.32 8.32 0.0 0 0 30.00 21.67
  A 8.32 8.32 0.0 0 0 21.68 29.99
  A 8.32 8.32 0.0 0 0 30.00 38.31
  A 8.32 8.32 0.0 0 0 38.32 29.99
  Z"
/>
</svg>
