<?xml version="1.0" encoding="UTF-8" standalone="no"?>
<!DOCTYPE svg PUBLIC "-//W3C//DTD SVG 1.1//EN" "http://www.w3.org/Graphics/SVG/1.1/DTD/svg11.dtd">
<svg xmlns="http://www.w3.org/2000/svg" version="1.1" viewBox="0.00 0.00 512.00 512.00">
<path fill="#78a55a" d="
  M 20.81 0.00
  L 24.31 0.00
  Q 29.06 0.81 33.94 3.31
  Q 265.07 121.80 496.18 240.33
  C 506.19 245.46 508.78 258.78 501.58 267.38
  Q 499.34 270.05 493.57 273.01
  Q 262.52 391.51 31.46 509.97
  Q 27.95 511.76 23.23 511.87
  C 8.75 512.21 4.43 499.83 7.15 487.73
  Q 28.42 393.14 49.69 298.56
  Q 49.79 298.11 50.25 298.03
  L 291.36 256.27
  Q 292.93 256.00 291.36 255.73
  L 50.47 214.02
  A 1.09 1.08 -1.2 0 1 49.61 213.20
  Q 28.17 117.78 6.82 22.44
  C 4.41 11.68 9.21 1.72 20.81 0.00
  Z"
/>
</svg>
