<?xml version="1.0" encoding="UTF-8" standalone="no"?>
<!DOCTYPE svg PUBLIC "-//W3C//DTD SVG 1.1//EN" "http://www.w3.org/Graphics/SVG/1.1/DTD/svg11.dtd">
<svg xmlns="http://www.w3.org/2000/svg" version="1.1" viewBox="0.00 0.00 23.00 23.00">
<path fill="#78a55a" d="
  M 9.38 18.95
  C 3.03 14.69 -0.28 5.59 8.77 2.02
  C 15.48 -0.63 21.78 6.71 19.09 13.15
  C 17.75 16.35 13.84 18.55 11.67 21.89
  Q 11.22 22.59 10.90 21.82
  L 10.01 19.71
  Q 9.81 19.24 9.38 18.95
  Z
  M 13.72 9.95
  A 2.24 2.24 0.0 0 0 11.48 7.71
  A 2.24 2.24 0.0 0 0 9.24 9.95
  A 2.24 2.24 0.0 0 0 11.48 12.19
  A 2.24 2.24 0.0 0 0 13.72 9.95
  Z"
/>
</svg>
