<?xml version="1.0" encoding="UTF-8" standalone="no"?>
<!DOCTYPE svg PUBLIC "-//W3C//DTD SVG 1.1//EN" "http://www.w3.org/Graphics/SVG/1.1/DTD/svg11.dtd">
<svg xmlns="http://www.w3.org/2000/svg" version="1.1" viewBox="0 0 512 512">
<path fill="#fc0005" d="
  M 184.31 0.00
  L 328.06 0.00
  Q 340.50 2.14 341.21 14.06
  Q 341.59 20.40 341.11 48.27
  A 1.00 1.00 0.0 0 1 340.11 49.25
  L 171.81 49.25
  A 1.01 1.01 0.0 0 1 170.80 48.25
  Q 170.64 20.82 170.74 15.78
  Q 171.01 2.15 184.31 0.00
  Z"
/>
<path fill="#fc0005" d="
  M 428.00 78.26
  C 441.97 78.26 454.78 87.61 459.10 100.86
  Q 460.67 105.67 460.73 116.47
  Q 460.80 129.85 460.73 143.26
  A 1.00 1.00 0.0 0 1 459.73 144.25
  L 52.30 144.25
  A 1.00 0.99 0.0 0 1 51.30 143.26
  Q 51.16 117.94 51.25 110.75
  C 51.43 96.42 60.96 83.94 74.54 79.74
  Q 79.34 78.26 90.22 78.26
  Q 259.11 78.24 428.00 78.26
  Z"
/>
<path fill="#fc0005" d="
  M 383.69 512.00
  L 126.44 512.00
  Q 111.44 509.37 107.36 497.21
  Q 106.28 494.00 105.19 478.01
  Q 94.78 326.06 84.41 174.07
  A 1.00 0.99 87.9 0 1 85.40 173.00
  L 426.42 173.00
  A 1.00 0.99 -87.9 0 1 427.41 174.07
  Q 416.11 329.10 404.79 484.39
  Q 404.01 495.12 402.15 499.32
  Q 397.35 510.18 383.69 512.00
  Z
  M 218.96 233.90
  A 14.28 14.28 0.0 0 0 204.68 219.62
  L 204.30 219.62
  A 14.28 14.28 0.0 0 0 190.02 233.90
  L 190.02 436.10
  A 14.28 14.28 0.0 0 0 204.30 450.38
  L 204.68 450.38
  A 14.28 14.28 0.0 0 0 218.96 436.10
  L 218.96 233.90
  Z
  M 321.73 233.76
  A 14.17 14.17 0.0 0 0 307.56 219.59
  L 307.18 219.59
  A 14.17 14.17 0.0 0 0 293.01 233.76
  L 293.01 436.22
  A 14.17 14.17 0.0 0 0 307.18 450.39
  L 307.56 450.39
  A 14.17 14.17 0.0 0 0 321.73 436.22
  L 321.73 233.76
  Z"
/>
</svg>
