<?xml version="1.0" encoding="UTF-8" standalone="no"?>
<!DOCTYPE svg PUBLIC "-//W3C//DTD SVG 1.1//EN" "http://www.w3.org/Graphics/SVG/1.1/DTD/svg11.dtd">
<svg xmlns="http://www.w3.org/2000/svg" version="1.1" viewBox="0 0 512 512">
<path fill="#78a55a" d="
  M 425.17 351.06
  C 454.39 360.53 473.38 387.82 471.50 418.36
  C 467.68 480.38 386.13 502.45 350.99 450.94
  A 1.00 0.97 -16.6 0 0 350.17 450.51
  Q 213.01 450.48 75.89 450.52
  Q 62.24 450.52 57.28 448.93
  C 44.43 444.79 40.23 433.84 40.24 421.19
  Q 40.27 241.62 40.24 62.05
  Q 40.24 53.90 41.59 49.62
  C 45.99 35.77 57.00 31.99 70.46 31.99
  Q 231.53 32.03 392.60 31.98
  Q 402.14 31.97 406.75 33.39
  Q 419.15 37.20 422.96 49.32
  Q 424.50 54.23 424.50 66.34
  Q 424.52 208.22 424.48 350.10
  A 1.01 1.01 0.0 0 0 425.17 351.06
  Z
  M 56.25 424.27
  C 56.25 429.97 59.77 434.47 65.75 434.47
  Q 203.67 434.50 341.55 434.50
  A 1.00 1.00 0.0 0 0 342.51 433.22
  Q 337.84 417.34 340.88 401.63
  C 344.91 380.86 358.65 363.41 377.84 354.34
  Q 391.35 347.95 407.48 348.18
  A 1.00 1.00 0.0 0 0 408.49 347.18
  Q 408.51 202.59 408.50 58.00
  C 408.50 49.71 402.70 48.00 395.32 48.00
  Q 231.63 48.00 67.94 48.00
  C 58.96 48.00 56.25 51.54 56.25 60.56
  Q 56.25 242.42 56.25 424.27
  Z
  M 373.44 452.06
  C 409.04 482.46 463.13 450.86 454.78 405.12
  C 445.80 355.90 376.88 349.99 359.15 395.76
  C 351.38 415.82 356.96 437.99 373.44 452.06
  Z"
/>
<circle fill="#78a55a" cx="223.78" cy="85.93" r="8.53"/>
<rect fill="#78a55a" x="94.57" y="78.01" width="93.42" height="15.96" rx="7.83"/>
<path fill="#78a55a" d="
  M 112.50 358.79
  C 101.08 358.79 90.98 351.91 87.15 341.18
  Q 85.76 337.30 85.76 329.53
  Q 85.76 241.54 85.73 153.55
  C 85.72 140.25 90.45 129.35 103.91 125.17
  Q 108.54 123.74 118.24 123.74
  Q 235.12 123.76 352.00 123.73
  C 363.07 123.73 373.87 130.37 377.48 141.05
  Q 378.99 145.53 378.99 156.26
  Q 378.99 241.95 379.02 327.64
  C 379.02 341.38 374.97 352.93 360.71 357.30
  Q 355.97 358.75 345.64 358.75
  Q 229.07 358.76 112.50 358.79
  Z
  M 361.64 281.76
  Q 363.00 283.09 363.00 281.19
  Q 363.00 217.32 363.00 152.94
  C 363.00 142.01 358.66 139.75 348.03 139.75
  Q 231.12 139.74 114.21 139.76
  C 104.62 139.76 101.71 143.82 101.73 153.37
  Q 101.83 200.20 101.67 246.78
  A 1.00 1.00 0.0 0 0 103.06 247.70
  Q 143.12 230.54 183.17 213.37
  C 188.22 211.21 192.40 209.29 196.31 213.19
  Q 218.48 235.34 240.20 257.08
  A 1.02 1.02 0.0 0 0 241.31 257.30
  Q 271.94 244.13 301.87 231.34
  C 306.14 229.51 309.40 229.67 312.59 232.91
  Q 336.49 257.10 361.64 281.76
  Z
  M 192.81 232.44
  Q 190.27 229.92 189.00 228.87
  A 1.02 1.01 -36.4 0 0 187.96 228.72
  L 102.33 265.44
  A 1.01 1.00 78.4 0 0 101.73 266.36
  Q 101.76 298.66 101.75 330.95
  C 101.75 337.88 105.11 342.75 112.50 342.75
  Q 231.05 342.76 349.59 342.74
  C 359.83 342.74 363.04 339.06 363.00 328.62
  Q 362.96 317.51 363.04 306.33
  A 0.96 0.95 -67.5 0 0 362.75 305.62
  L 305.11 248.01
  A 1.00 0.99 55.7 0 0 304.01 247.80
  L 254.33 269.11
  A 1.00 1.00 0.0 0 0 254.03 270.75
  Q 262.62 279.10 271.02 287.75
  Q 274.22 291.03 274.75 293.56
  C 275.88 298.87 270.46 303.93 265.16 302.70
  Q 262.76 302.15 259.92 299.29
  Q 226.52 265.72 192.81 232.44
  Z"
/>
<path fill="#78a55a" d="
  M 267.8902 209.3498
  A 25.85 25.31 89.8 0 1 242.4902 183.5883
  A 25.85 25.31 89.8 0 1 267.7098 157.6502
  A 25.85 25.31 89.8 0 1 293.1098 183.4117
  A 25.85 25.31 89.8 0 1 267.8902 209.3498
  Z
  M 267.8347 193.4299
  A 9.93 9.58 89.8 0 0 277.3799 183.4666
  A 9.93 9.58 89.8 0 0 267.7653 173.5701
  A 9.93 9.58 89.8 0 0 258.2201 183.5334
  A 9.93 9.58 89.8 0 0 267.8347 193.4299
  Z"
/>
<path fill="#78a55a" d="
  M 396.06 404.39
  Q 391.16 409.14 385.93 414.43
  C 378.23 422.22 366.26 411.57 375.26 402.50
  Q 387.25 390.42 399.43 378.55
  C 403.39 374.68 407.76 374.30 411.69 378.17
  Q 423.50 389.78 435.15 401.54
  C 438.93 405.35 441.45 409.61 437.70 414.19
  C 434.23 418.42 428.92 417.69 425.23 414.02
  Q 420.43 409.24 415.51 404.57
  Q 413.84 402.99 413.82 405.29
  Q 413.68 424.46 413.76 443.47
  C 413.81 455.51 397.77 455.95 397.76 443.64
  Q 397.74 424.41 397.75 405.11
  Q 397.75 402.75 396.06 404.39
  Z"
/>
<circle fill="#78a55a" cx="102.47" cy="396.54" r="8.53"/>
<circle fill="#78a55a" cx="136.99" cy="396.55" r="8.52"/>
<circle fill="#78a55a" cx="171.49" cy="396.56" r="8.53"/>
</svg>
