<?xml version="1.0" encoding="UTF-8" standalone="no"?>
<!DOCTYPE svg PUBLIC "-//W3C//DTD SVG 1.1//EN" "http://www.w3.org/Graphics/SVG/1.1/DTD/svg11.dtd">
<svg xmlns="http://www.w3.org/2000/svg" version="1.1" viewBox="0 0 512 512">
<path fill="#78a55a" d="
  M 62.19 186.50
  C 62.17 164.29 70.22 144.55 87.36 130.75
  Q 91.69 127.26 104.20 120.01
  Q 160.12 87.60 216.12 55.27
  Q 227.50 48.71 234.03 46.46
  Q 263.18 36.41 290.70 52.29
  Q 350.01 86.51 409.29 120.78
  Q 420.88 127.48 425.93 131.80
  Q 445.47 148.52 449.18 174.28
  Q 450.02 180.09 450.01 194.25
  Q 449.98 260.51 450.01 326.75
  Q 450.03 359.37 426.88 379.63
  Q 421.72 384.15 410.32 390.74
  Q 355.37 422.50 300.42 454.25
  Q 287.86 461.51 282.78 463.64
  Q 254.09 475.69 226.15 462.20
  Q 224.15 461.24 208.74 452.36
  Q 115.04 398.31 97.75 388.27
  Q 68.25 371.16 63.20 338.69
  Q 62.23 332.51 62.24 318.74
  Q 62.25 252.63 62.19 186.50
  Z
  M 305.71 206.30
  A 49.65 49.65 0.0 0 0 256.06 156.65
  A 49.65 49.65 0.0 0 0 206.41 206.30
  A 49.65 49.65 0.0 0 0 256.06 255.95
  A 49.65 49.65 0.0 0 0 305.71 206.30
  Z
  M 329.87 320.61
  C 317.06 302.53 295.52 291.00 274.01 287.39
  C 240.33 281.73 204.62 291.93 182.98 319.47
  C 170.60 335.23 180.58 355.42 200.51 355.46
  Q 255.85 355.57 311.19 355.45
  C 330.28 355.40 341.38 336.85 329.87 320.61
  Z"
/>
</svg>
