<?xml version="1.0" encoding="UTF-8" standalone="no"?>
<!DOCTYPE svg PUBLIC "-//W3C//DTD SVG 1.1//EN" "http://www.w3.org/Graphics/SVG/1.1/DTD/svg11.dtd">
<svg xmlns="http://www.w3.org/2000/svg" version="1.1" viewBox="0.00 0.00 36.00 36.00">
<path fill="#78a55a" d="
  M 11.18 12.66
  C 7.13 0.36 28.70 1.82 24.81 12.82
  Q 24.65 13.28 24.86 13.71
  C 25.75 15.53 24.23 16.53 23.61 17.71
  Q 22.82 19.21 21.71 20.48
  Q 21.39 20.85 21.47 21.33
  L 21.79 23.21
  Q 21.88 23.76 21.42 24.07
  Q 17.77 26.52 14.41 23.88
  Q 13.99 23.55 14.15 23.03
  C 15.08 20.18 12.43 17.82 10.95 15.56
  A 1.07 1.04 -53.0 0 1 10.83 14.63
  L 11.17 13.63
  Q 11.33 13.14 11.18 12.66
  Z"
/>
<path fill="#78a55a" d="
  M 24.83 24.98
  C 28.36 25.99 32.28 27.32 32.21 31.63
  Q 32.20 32.24 31.58 32.25
  L 5.01 32.52
  A 1.45 1.45 0.0 0 1 3.66 30.51
  Q 5.79 25.49 11.50 25.13
  Q 11.93 25.11 12.27 25.36
  Q 18.23 29.87 23.96 25.16
  Q 24.34 24.84 24.83 24.98
  Z"
/>
</svg>
