<?xml version="1.0" encoding="UTF-8" standalone="no"?>
<!DOCTYPE svg PUBLIC "-//W3C//DTD SVG 1.1//EN" "http://www.w3.org/Graphics/SVG/1.1/DTD/svg11.dtd">
<svg xmlns="http://www.w3.org/2000/svg" version="1.1" viewBox="0.00 0.00 30.00 30.00">
<path fill="#78a55a" d="
  M 9.69 19.97
  L 9.41 14.79
  A 0.31 0.31 0.0 0 0 9.10 14.50
  L 7.62 14.50
  A 0.31 0.31 0.0 0 1 7.40 13.97
  L 18.16 3.22
  A 0.31 0.31 0.0 0 1 18.60 3.22
  L 26.76 11.39
  A 0.31 0.31 0.0 0 1 26.76 11.83
  L 16.12 22.59
  A 0.31 0.31 0.0 0 1 15.60 22.43
  L 15.33 20.88
  A 0.31 0.31 0.0 0 0 15.05 20.62
  L 9.98 20.26
  A 0.31 0.31 0.0 0 1 9.69 19.97
  Z"
/>
<path fill="#78a55a" d="
  M 4.63 27.00
  A 1.36 1.36 0.0 0 1 2.95 25.27
  L 4.47 20.74
  Q 4.68 20.09 5.17 20.57
  L 9.48 24.81
  Q 10.05 25.36 9.29 25.59
  L 4.63 27.00
  Z"
/>
</svg>
