<?xml version="1.0" encoding="UTF-8" standalone="no"?>
<!DOCTYPE svg PUBLIC "-//W3C//DTD SVG 1.1//EN" "http://www.w3.org/Graphics/SVG/1.1/DTD/svg11.dtd">
<svg xmlns="http://www.w3.org/2000/svg" version="1.1" viewBox="0.00 0.00 36.00 36.00">
<path fill="#77a45a" d="
  M 32.35 17.99
  A 14.35 14.35 0.0 0 1 18.00 32.34
  A 14.35 14.35 0.0 0 1 3.65 17.99
  A 14.35 14.35 0.0 0 1 18.00 3.64
  A 14.35 14.35 0.0 0 1 32.35 17.99
  Z
  M 14.46 11.99
  L 21.52 12.01
  A 0.16 0.16 0.0 0 0 21.69 11.85
  L 21.69 11.77
  A 5.50 3.64 -89.9 0 0 18.06 6.26
  L 17.96 6.26
  A 5.50 3.64 -89.9 0 0 14.31 11.75
  L 14.31 11.83
  A 0.16 0.16 0.0 0 0 14.46 11.99
  Z
  M 7.85 11.09
  A 0.46 0.46 0.0 0 0 8.13 11.90
  L 10.96 12.04
  A 0.46 0.46 0.0 0 0 11.41 11.74
  L 12.79 7.86
  A 0.46 0.46 0.0 0 0 12.05 7.37
  L 7.85 11.09
  Z
  M 27.87 12.00
  A 0.46 0.46 0.0 0 0 28.18 11.20
  L 24.17 7.58
  A 0.46 0.46 0.0 0 0 23.42 8.06
  L 24.51 11.67
  A 0.46 0.46 0.0 0 0 24.95 12.00
  L 27.87 12.00
  Z
  M 6.80 21.70
  L 10.24 21.68
  A 0.64 0.64 0.0 0 0 10.88 21.04
  L 10.86 15.42
  A 1.31 1.20 -0.2 0 0 9.55 14.23
  L 7.45 14.23
  A 1.31 1.20 -0.2 0 0 6.14 15.44
  L 6.16 21.06
  A 0.64 0.64 0.0 0 0 6.80 21.70
  Z
  M 22.6965 15.2888
  A 1.08 1.08 0.0 0 0 21.6071 14.2183
  L 14.3074 14.2820
  A 1.08 1.08 0.0 0 0 13.2369 15.3714
  L 13.2835 20.7112
  A 1.08 1.08 0.0 0 0 14.3729 21.7817
  L 21.6726 21.7180
  A 1.08 1.08 0.0 0 0 22.7431 20.6286
  L 22.6965 15.2888
  Z
  M 26.33 14.31
  Q 25.97 14.16 25.65 14.22
  Q 25.18 14.29 25.18 14.77
  L 25.22 21.11
  Q 25.23 21.50 25.61 21.50
  L 28.98 21.50
  Q 29.58 21.50 29.70 20.91
  C 30.03 19.23 30.90 13.08 27.22 14.33
  A 1.32 1.31 -43.5 0 1 26.33 14.31
  Z
  M 10.84 27.45
  Q 11.39 28.17 12.24 28.49
  A 0.36 0.36 0.0 0 0 12.71 28.04
  L 11.49 24.52
  Q 11.31 24.00 10.76 24.00
  L 8.48 24.00
  A 0.51 0.50 74.3 0 0 8.05 24.77
  Q 8.84 26.09 10.11 26.81
  Q 10.54 27.05 10.84 27.45
  Z
  M 16.97 29.64
  A 1.73 1.73 0.0 0 0 19.68 29.22
  L 22.11 24.77
  Q 22.53 24.00 21.65 24.00
  L 14.47 24.00
  Q 13.91 24.00 14.04 24.55
  Q 14.77 27.53 16.97 29.64
  Z
  M 27.98 24.28
  C 24.11 22.44 24.00 26.11 23.06 28.39
  A 0.36 0.35 -9.2 0 0 23.62 28.79
  L 28.07 24.94
  Q 28.54 24.54 27.98 24.28
  Z"
/>
</svg>
