<?xml version="1.0" encoding="UTF-8" standalone="no"?>
<!DOCTYPE svg PUBLIC "-//W3C//DTD SVG 1.1//EN" "http://www.w3.org/Graphics/SVG/1.1/DTD/svg11.dtd">
<svg xmlns="http://www.w3.org/2000/svg" version="1.1" viewBox="0 0 48 38">
<path fill="#78a55a" d="
  M 21.53 6.17
  Q 22.43 2.55 25.70 4.40
  A 0.99 0.97 9.0 0 1 26.19 5.06
  L 26.38 6.00
  A 1.02 1.00 -86.4 0 0 27.01 6.73
  C 35.11 9.76 33.58 15.92 34.46 22.89
  Q 34.48 23.02 34.53 23.15
  L 34.93 24.12
  A 1.00 1.00 0.0 0 1 34.01 25.50
  L 14.10 25.50
  A 1.00 1.00 0.0 0 1 13.11 24.33
  Q 13.62 21.44 13.96 15.50
  Q 14.32 9.14 20.89 6.87
  A 1.01 1.00 -2.9 0 0 21.53 6.17
  Z"
/>
<path fill="#78a55a" d="
  M 19.18 30.35
  L 11.28 30.32
  A 1.00 0.99 -0.0 0 1 10.28 29.33
  L 10.28 28.99
  A 1.00 0.99 -89.7 0 1 11.28 27.99
  Q 23.21 28.01 35.11 27.98
  C 36.28 27.98 38.34 27.29 37.68 29.64
  A 1.00 1.00 0.0 0 1 36.71 30.36
  L 28.75 30.29
  A 1.00 0.99 -0.5 0 0 27.74 31.31
  Q 27.79 33.58 26.20 34.72
  C 23.40 36.71 20.30 34.61 20.18 31.31
  A 1.00 0.99 -0.9 0 0 19.18 30.35
  Z"
/>
</svg>
