<?xml version="1.0" encoding="UTF-8" standalone="no"?>
<!DOCTYPE svg PUBLIC "-//W3C//DTD SVG 1.1//EN" "http://www.w3.org/Graphics/SVG/1.1/DTD/svg11.dtd">
<svg xmlns="http://www.w3.org/2000/svg" version="1.1" viewBox="0.00 0.00 36.00 30.00">
<path fill="#71a951" d="
  M 16.35 19.52
  L 16.57 19.72
  A 1.37 1.36 42.7 0 0 18.47 19.65
  L 26.11 11.57
  A 3.77 3.76 43.4 0 0 25.96 6.23
  L 25.29 5.59
  A 2.87 2.86 -45.7 0 0 21.31 5.64
  C 18.58 8.33 12.17 13.90 11.15 17.39
  C 10.08 21.06 13.46 25.74 17.46 24.98
  C 20.57 24.40 24.21 19.65 26.47 17.23
  A 0.91 0.91 0.0 0 1 27.87 17.31
  L 28.05 17.55
  A 0.70 0.70 0.0 0 1 28.00 18.45
  C 25.55 21.02 22.58 24.92 19.75 26.22
  C 11.77 29.86 5.58 19.22 11.22 13.24
  C 13.84 10.47 19.05 3.73 22.65 3.07
  C 27.73 2.15 30.81 8.80 27.33 12.86
  Q 23.81 16.99 19.58 21.21
  A 2.96 2.96 0.0 0 1 15.64 21.43
  L 14.88 20.82
  A 3.45 3.45 0.0 0 1 14.54 15.73
  L 21.03 8.97
  A 0.62 0.62 0.0 0 1 21.93 8.97
  L 22.23 9.28
  A 0.88 0.87 44.8 0 1 22.24 10.50
  L 16.24 16.84
  A 1.88 1.87 42.8 0 0 16.35 19.52
  Z"
/>
</svg>
