<?xml version="1.0" encoding="UTF-8" standalone="no"?>
<!DOCTYPE svg PUBLIC "-//W3C//DTD SVG 1.1//EN" "http://www.w3.org/Graphics/SVG/1.1/DTD/svg11.dtd">
<svg xmlns="http://www.w3.org/2000/svg" version="1.1" viewBox="0.00 0.00 36.00 36.00">
<path fill="#73a655" d="
  M 32.35 18.00
  A 14.36 14.36 0.0 0 1 17.99 32.36
  A 14.36 14.36 0.0 0 1 3.63 18.00
  A 14.36 14.36 0.0 0 1 17.99 3.64
  A 14.36 14.36 0.0 0 1 32.35 18.00
  Z
  M 30.01 18.00
  A 12.01 12.01 0.0 0 0 18.00 5.99
  A 12.01 12.01 0.0 0 0 5.99 18.00
  A 12.01 12.01 0.0 0 0 18.00 30.01
  A 12.01 12.01 0.0 0 0 30.01 18.00
  Z"
/>
<circle fill="#73a655" cx="23.40" cy="17.43" r="1.75"/>
<circle fill="#73a655" cx="12.56" cy="17.44" r="1.76"/>
<path fill="#73a655" d="
  M 21.25 22.83
  Q 22.27 22.12 22.46 23.34
  L 22.55 23.89
  A 1.32 1.32 0.0 0 1 21.88 25.26
  Q 18.02 27.37 14.15 25.27
  A 1.38 1.37 -73.8 0 1 13.44 23.97
  L 13.48 23.42
  A 0.81 0.81 0.0 0 1 14.75 22.82
  Q 17.98 25.11 21.25 22.83
  Z"
/>
</svg>
