<?xml version="1.0" encoding="UTF-8" standalone="no"?>
<!DOCTYPE svg PUBLIC "-//W3C//DTD SVG 1.1//EN" "http://www.w3.org/Graphics/SVG/1.1/DTD/svg11.dtd">
<svg xmlns="http://www.w3.org/2000/svg" version="1.1" viewBox="0.00 0.00 36.00 36.00">
<path fill="#78a55a" d="
  M 0.00 26.88
  L 0.00 9.02
  Q 0.71 7.26 3.00 7.26
  Q 12.74 7.24 22.52 7.25
  Q 25.25 7.26 25.25 9.99
  L 25.25 26.48
  A 2.26 2.26 0.0 0 1 22.99 28.74
  Q 12.65 28.76 2.75 28.73
  Q 0.50 28.73 0.00 26.88
  Z"
/>
<path fill="#78a55a" d="
  M 36.00 10.63
  L 36.00 26.41
  Q 31.55 24.79 27.94 20.46
  A 1.33 1.32 25.2 0 1 27.63 19.61
  L 27.65 16.12
  Q 27.65 15.61 28.03 15.28
  L 33.71 10.20
  Q 33.71 10.19 33.71 10.19
  Q 35.33 8.95 36.00 10.63
  Z"
/>
</svg>
