<?xml version="1.0" encoding="UTF-8" standalone="no"?>
<!DOCTYPE svg PUBLIC "-//W3C//DTD SVG 1.1//EN" "http://www.w3.org/Graphics/SVG/1.1/DTD/svg11.dtd">
<svg xmlns="http://www.w3.org/2000/svg" version="1.1" viewBox="0.00 0.00 63.00 63.00">
<path fill="#78a55a" d="
  M 10.95 46.24
  L 40.90 46.29
  A 0.70 0.70 0.0 0 1 41.38 47.51
  L 36.62 51.92
  Q 36.26 52.26 35.77 52.24
  C 27.38 52.03 18.65 52.49 10.21 52.51
  C 4.75 52.52 4.53 50.69 4.39 45.95
  Q 3.75 25.65 4.67 12.98
  C 4.84 10.56 7.31 10.57 9.60 10.55
  Q 31.78 10.42 53.94 10.60
  C 58.64 10.63 58.52 13.72 58.71 17.67
  Q 59.01 23.71 58.49 29.73
  A 1.46 1.45 -19.8 0 1 58.07 30.62
  L 51.51 37.15
  A 1.30 1.29 44.8 0 1 49.68 37.15
  Q 46.92 34.41 44.09 31.41
  C 40.14 27.21 32.31 31.08 36.93 34.97
  Q 37.32 35.29 37.45 35.77
  C 38.25 38.53 35.31 39.33 33.72 37.79
  Q 26.74 31.01 23.50 27.54
  C 19.15 22.88 14.11 26.48 11.64 30.62
  C 9.59 34.06 10.49 41.69 10.51 45.81
  Q 10.51 46.24 10.95 46.24
  Z
  M 52.43 20.99
  A 4.11 4.11 0.0 0 0 48.32 16.88
  A 4.11 4.11 0.0 0 0 44.21 20.99
  A 4.11 4.11 0.0 0 0 48.32 25.10
  A 4.11 4.11 0.0 0 0 52.43 20.99
  Z"
/>
<rect fill="#78a55a" x="-2.57" y="-4.24" transform="translate(59.02,41.79) rotate(-44.0)" width="5.14" height="8.48" rx="1.69"/>
<rect fill="#78a55a" x="-4.47" y="-7.24" transform="translate(49.80,51.01) rotate(44.6)" width="8.94" height="14.48" rx="1.71"/>
<path fill="#78a55a" d="
  M 38.45 62.79
  A 0.50 0.50 0.0 0 1 37.90 62.34
  L 37.89 62.19
  A 2.93 1.99 84.6 0 1 39.59 59.08
  L 39.71 59.07
  A 2.93 1.99 84.6 0 1 41.97 61.80
  L 41.98 61.95
  A 0.50 0.50 0.0 0 1 41.53 62.50
  L 38.45 62.79
  Z"
/>
</svg>
