<?xml version="1.0" encoding="UTF-8" standalone="no"?>
<!DOCTYPE svg PUBLIC "-//W3C//DTD SVG 1.1//EN" "http://www.w3.org/Graphics/SVG/1.1/DTD/svg11.dtd">
<svg xmlns="http://www.w3.org/2000/svg" version="1.1" viewBox="0.00 0.00 61.00 61.00">
<path fill="#78a55a" d="
  M 47.04 26.38
  Q 45.43 26.13 45.10 27.91
  A 0.83 0.83 0.0 0 1 44.48 28.58
  L 41.51 29.34
  Q 40.98 29.47 40.67 29.03
  Q 40.41 28.67 40.48 28.17
  Q 40.56 27.65 40.26 27.21
  Q 38.93 25.25 36.91 27.38
  A 1.46 1.46 0.0 0 0 37.09 29.55
  Q 37.43 29.81 37.60 30.14
  Q 37.81 30.54 37.47 30.84
  L 32.69 35.01
  A 0.81 0.81 0.0 0 1 31.92 35.18
  L 30.45 34.73
  Q 29.96 34.58 29.54 34.86
  Q 28.19 35.75 28.64 37.35
  Q 28.79 37.88 29.30 38.07
  Q 30.48 38.53 30.05 39.53
  Q 27.35 45.90 29.51 52.47
  A 0.26 0.26 0.0 0 1 29.26 52.82
  L 11.88 52.72
  A 3.84 3.83 0.4 0 1 8.07 48.87
  L 8.25 11.74
  A 3.51 3.51 0.0 0 1 11.76 8.25
  L 49.32 8.25
  A 3.39 3.39 0.0 0 1 52.71 11.57
  L 53.07 27.98
  Q 53.10 29.33 51.76 29.27
  Q 49.08 29.15 47.85 26.94
  A 1.11 1.09 -9.7 0 0 47.04 26.38
  Z
  M 48.7522 12.8737
  A 0.56 0.56 0.0 0 0 48.1942 12.3117
  L 12.8344 12.1883
  A 0.56 0.56 0.0 0 0 12.2724 12.7464
  L 12.2478 19.8063
  A 0.56 0.56 0.0 0 0 12.8058 20.3683
  L 48.1656 20.4917
  A 0.56 0.56 0.0 0 0 48.7276 19.9336
  L 48.7522 12.8737
  Z
  M 24.30 28.43
  A 2.01 2.01 0.0 0 0 22.29 26.42
  A 2.01 2.01 0.0 0 0 20.28 28.43
  A 2.01 2.01 0.0 0 0 22.29 30.44
  A 2.01 2.01 0.0 0 0 24.30 28.43
  Z
  M 32.45 28.43
  A 2.01 2.01 0.0 0 0 30.44 26.42
  A 2.01 2.01 0.0 0 0 28.43 28.43
  A 2.01 2.01 0.0 0 0 30.44 30.44
  A 2.01 2.01 0.0 0 0 32.45 28.43
  Z
  M 16.12 36.63
  A 1.95 1.95 0.0 0 0 14.17 34.68
  A 1.95 1.95 0.0 0 0 12.22 36.63
  A 1.95 1.95 0.0 0 0 14.17 38.58
  A 1.95 1.95 0.0 0 0 16.12 36.63
  Z
  M 24.32 36.64
  A 1.99 1.99 0.0 0 0 22.33 34.65
  A 1.99 1.99 0.0 0 0 20.34 36.64
  A 1.99 1.99 0.0 0 0 22.33 38.63
  A 1.99 1.99 0.0 0 0 24.32 36.64
  Z
  M 16.15 44.79
  A 1.97 1.97 0.0 0 0 14.18 42.82
  A 1.97 1.97 0.0 0 0 12.21 44.79
  A 1.97 1.97 0.0 0 0 14.18 46.76
  A 1.97 1.97 0.0 0 0 16.15 44.79
  Z
  M 24.33 44.76
  A 1.97 1.97 0.0 0 0 22.36 42.79
  A 1.97 1.97 0.0 0 0 20.39 44.76
  A 1.97 1.97 0.0 0 0 22.36 46.73
  A 1.97 1.97 0.0 0 0 24.33 44.76
  Z"
/>
<path fill="#78a55a" d="
  M 61.00 46.05
  L 61.00 47.56
  Q 59.31 59.36 47.44 61.00
  L 45.93 61.00
  C 35.03 59.55 28.51 48.30 35.32 38.78
  C 43.49 27.35 59.34 32.80 61.00 46.05
  Z
  M 49.95 44.53
  A 1.30 1.30 0.0 0 1 48.99 43.58
  L 48.01 39.56
  A 1.30 1.30 0.0 0 0 45.48 39.57
  L 44.52 43.58
  A 1.30 1.30 0.0 0 1 43.57 44.54
  L 39.55 45.52
  A 1.30 1.30 0.0 0 0 39.56 48.05
  L 43.57 49.01
  A 1.30 1.30 0.0 0 1 44.53 49.96
  L 45.51 53.98
  A 1.30 1.30 0.0 0 0 48.04 53.97
  L 49.00 49.96
  A 1.30 1.30 0.0 0 1 49.95 49.00
  L 53.97 48.02
  A 1.30 1.30 0.0 0 0 53.96 45.49
  L 49.95 44.53
  Z"
/>
</svg>
