<?xml version="1.0" encoding="UTF-8" standalone="no"?>
<!DOCTYPE svg PUBLIC "-//W3C//DTD SVG 1.1//EN" "http://www.w3.org/Graphics/SVG/1.1/DTD/svg11.dtd">
<svg xmlns="http://www.w3.org/2000/svg" version="1.1" viewBox="0 0 60 60">
<path fill="#78a55a" d="
  M 35.87 31.29
  C 31.66 36.63 37.14 38.30 41.56 40.40
  Q 46.84 42.89 48.01 48.81
  A 1.00 0.99 -5.7 0 1 47.03 50.00
  L 12.99 50.00
  A 1.01 1.00 5.2 0 1 12.00 48.82
  Q 13.11 42.87 18.44 40.39
  C 21.17 39.11 28.02 36.95 24.82 32.39
  C 23.30 30.22 22.47 28.70 21.24 26.87
  A 0.99 0.96 37.8 0 1 21.12 26.00
  C 21.93 23.54 20.75 21.82 21.11 19.70
  Q 22.68 10.57 32.57 12.37
  A 1.02 1.00 76.4 0 1 33.20 12.76
  L 33.91 13.73
  A 1.03 1.03 0.0 0 0 34.49 14.12
  C 40.40 15.49 38.48 22.45 38.69 26.69
  A 1.03 0.99 -32.5 0 1 38.56 27.22
  Q 37.39 29.37 35.87 31.29
  Z"
/>
<path fill="#78a55a" d="
  M 0.00 49.69
  L 0.00 48.44
  C 1.61 40.48 7.89 42.52 11.20 37.30
  A 1.00 0.99 46.4 0 0 11.22 36.26
  C 10.00 34.18 6.87 30.16 7.92 27.80
  A 1.03 1.00 -41.8 0 0 7.97 27.11
  Q 6.80 23.07 8.79 19.34
  A 1.00 0.99 -85.8 0 1 9.33 18.87
  C 12.33 17.77 12.80 15.16 16.68 16.20
  A 1.00 1.00 0.0 0 1 17.42 17.27
  C 16.78 23.38 16.48 28.16 20.02 32.49
  A 1.02 1.00 -62.5 0 1 20.24 33.20
  Q 20.09 35.21 18.95 35.71
  C 12.73 38.41 8.60 42.21 7.95 49.04
  A 1.00 1.00 0.0 0 1 7.05 49.94
  Q 3.44 50.28 0.00 49.69
  Z"
/>
<path fill="#78a55a" d="
  M 60.00 48.31
  L 60.00 49.81
  L 53.06 49.89
  A 1.01 1.00 86.5 0 1 52.05 48.99
  C 51.26 41.20 46.91 39.23 40.83 35.44
  Q 38.30 33.86 39.96 32.26
  Q 42.53 29.79 42.64 26.25
  Q 42.78 21.69 42.58 17.15
  A 1.01 1.01 0.0 0 1 43.59 16.10
  L 46.69 16.13
  A 1.00 0.98 -14.2 0 1 47.56 16.64
  Q 48.44 18.23 50.28 18.60
  A 1.00 0.97 78.6 0 1 50.92 19.04
  Q 53.27 22.72 52.02 26.92
  A 1.00 0.94 43.3 0 0 52.06 27.58
  C 53.17 30.33 50.16 33.64 49.12 35.66
  Q 47.84 38.17 50.40 39.33
  C 54.69 41.29 58.87 42.83 60.00 48.31
  Z"
/>
</svg>
