<?xml version="1.0" encoding="UTF-8" standalone="no"?>
<!DOCTYPE svg PUBLIC "-//W3C//DTD SVG 1.1//EN" "http://www.w3.org/Graphics/SVG/1.1/DTD/svg11.dtd">
<svg xmlns="http://www.w3.org/2000/svg" version="1.1" viewBox="0 0 40 40">
<path fill="#78a55a" d="
  M 26.63 5.72
  Q 26.80 3.54 29.71 4.11
  A 1.00 1.00 0.0 0 1 30.52 5.07
  L 30.62 10.49
  A 1.01 1.00 -70.6 0 0 30.97 11.23
  C 32.15 12.25 35.45 14.39 35.80 15.81
  Q 36.13 17.18 34.24 17.51
  A 1.00 0.99 85.2 0 0 33.42 18.49
  L 33.32 33.53
  A 0.99 0.99 0.0 0 1 32.33 34.52
  L 9.50 34.58
  Q 6.77 34.59 6.76 31.75
  L 6.70 18.32
  A 1.00 0.99 -2.4 0 0 5.62 17.33
  C 3.49 17.52 4.11 15.37 5.18 14.47
  Q 12.23 8.54 19.42 2.80
  A 1.01 1.00 45.7 0 1 20.69 2.82
  L 24.99 6.41
  Q 26.48 7.65 26.63 5.72
  Z
  M 24.0170 21.7740
  A 0.48 0.48 0.0 0 0 23.5387 21.2923
  L 16.4987 21.2677
  A 0.48 0.48 0.0 0 0 16.0171 21.7461
  L 15.9830 31.5060
  A 0.48 0.48 0.0 0 0 16.4613 31.9877
  L 23.5013 32.0123
  A 0.48 0.48 0.0 0 0 23.9829 31.5339
  L 24.0170 21.7740
  Z"
/>
</svg>
