<?xml version="1.0" encoding="UTF-8" standalone="no"?>
<!DOCTYPE svg PUBLIC "-//W3C//DTD SVG 1.1//EN" "http://www.w3.org/Graphics/SVG/1.1/DTD/svg11.dtd">
<svg xmlns="http://www.w3.org/2000/svg" version="1.1" viewBox="0 0 60 60">
<path fill="#78a55a" d="
  M 15.72 48.07
  Q 10.95 48.07 10.01 47.75
  C 5.07 46.08 4.04 42.76 4.01 37.61
  Q 3.97 28.15 4.01 18.69
  C 4.05 11.66 6.26 8.03 13.48 8.02
  Q 29.24 7.99 45.01 8.00
  C 52.47 8.00 55.94 10.23 55.98 17.82
  Q 56.02 27.41 56.00 37.02
  C 55.99 44.47 53.76 47.94 46.17 47.98
  Q 36.63 48.02 27.07 48.00
  A 1.01 1.00 -72.8 0 0 26.24 48.44
  Q 21.50 55.44 13.50 55.99
  C 11.23 56.15 11.98 54.45 13.18 53.77
  Q 15.88 52.22 16.68 49.33
  A 1.00 0.99 7.9 0 0 15.72 48.07
  Z
  M 21.94 28.00
  A 3.95 3.95 0.0 0 0 17.99 24.05
  A 3.95 3.95 0.0 0 0 14.04 28.00
  A 3.95 3.95 0.0 0 0 17.99 31.95
  A 3.95 3.95 0.0 0 0 21.94 28.00
  Z
  M 33.94 28.01
  A 3.95 3.95 0.0 0 0 29.99 24.06
  A 3.95 3.95 0.0 0 0 26.04 28.01
  A 3.95 3.95 0.0 0 0 29.99 31.96
  A 3.95 3.95 0.0 0 0 33.94 28.01
  Z
  M 45.94 27.99
  A 3.95 3.95 0.0 0 0 41.99 24.04
  A 3.95 3.95 0.0 0 0 38.04 27.99
  A 3.95 3.95 0.0 0 0 41.99 31.94
  A 3.95 3.95 0.0 0 0 45.94 27.99
  Z"
/>
</svg>
