<?xml version="1.0" encoding="UTF-8" standalone="no"?>
<!DOCTYPE svg PUBLIC "-//W3C//DTD SVG 1.1//EN" "http://www.w3.org/Graphics/SVG/1.1/DTD/svg11.dtd">
<svg xmlns="http://www.w3.org/2000/svg" version="1.1" viewBox="0 0 512 512">
<g stroke-width="2.00" fill="none" stroke-linecap="butt">
<path stroke="#fe5662" vector-effect="non-scaling-stroke" d="
  M 375.79 30.00
  L 311.12 94.91"
/>
<path stroke="#fb9fa7" vector-effect="non-scaling-stroke" d="
  M 311.12 94.91
  Q 294.73 88.82 278.11 87.49"
/>
<path stroke="#ee91a2" vector-effect="non-scaling-stroke" d="
  M 278.11 87.49
  Q 270.78 85.67 260.50 85.53
  C 192.89 84.58 130.29 121.49 101.59 183.51
  Q 73.19 244.90 94.66 311.14"
/>
<path stroke="#fe5662" vector-effect="non-scaling-stroke" d="
  M 94.66 311.14
  L 29.87 376.24"
/>
<path stroke="#fe5662" vector-effect="non-scaling-stroke" d="
  M 482.21 135.75
  Q 449.90 167.92 417.77 200.27
  Q 417.45 200.60 417.21 201.00"
/>
<path stroke="#fcaeb4" vector-effect="non-scaling-stroke" d="
  M 417.21 201.00
  C 415.80 200.77 234.02 383.90 216.58 401.37"
/>
<path stroke="#eea0af" vector-effect="non-scaling-stroke" d="
  M 216.58 401.37
  L 200.84 417.30"
/>
<path stroke="#fe5662" vector-effect="non-scaling-stroke" d="
  M 200.84 417.30
  L 135.75 482.21"
/>
<path stroke="#eea0af" vector-effect="non-scaling-stroke" d="
  M 94.66 311.14
  L 135.79 270.25"
/>
<path stroke="#fcaeb4" vector-effect="non-scaling-stroke" d="
  M 135.79 270.25
  L 311.12 94.91"
/>
<path stroke="#fcaeb4" vector-effect="non-scaling-stroke" d="
  M 389.94 65.69
  C 385.84 70.36 387.69 74.98 391.81 79.07
  Q 411.98 99.10 432.09 119.20
  C 436.92 124.02 441.32 126.55 447.05 121.56
  C 452.06 117.19 462.00 107.25 465.26 100.69
  C 479.76 71.49 442.66 33.14 413.42 45.44
  C 405.14 48.92 395.94 58.84 389.94 65.69"
/>
<path stroke="#fcaeb4" vector-effect="non-scaling-stroke" d="
  M 371.22 107.92
  Q 376.88 102.33 382.42 96.61
  C 389.81 88.97 382.88 77.24 373.51 81.81
  Q 371.71 82.69 368.29 86.10
  Q 361.76 92.60 355.26 99.12
  C 350.27 104.11 346.42 109.27 352.32 115.19
  Q 374.49 137.40 396.71 159.54
  C 402.15 164.96 407.22 162.34 411.80 157.80
  C 417.48 152.15 429.58 142.09 430.93 136.49
  C 432.30 130.79 426.38 124.83 420.64 126.30
  C 415.63 127.59 407.87 136.94 404.09 140.79
  A 1.00 1.00 0.0 0 1 402.67 140.79
  L 393.85 131.98
  A 1.00 1.00 0.0 0 1 393.85 130.57
  C 397.45 126.97 405.72 120.19 406.81 115.45
  C 408.23 109.31 402.81 103.86 396.57 105.15
  C 392.02 106.09 384.84 114.72 381.44 118.15
  A 1.00 1.00 0.0 0 1 380.02 118.15
  L 371.21 109.34
  A 1.00 1.00 0.0 0 1 371.22 107.92"
/>
<path stroke="#fcaeb4" vector-effect="non-scaling-stroke" d="
  M 367.05 176.81
  Q 348.16 158.14 329.44 139.30
  C 326.72 136.56 324.20 135.08 320.51 135.79
  C 315.57 136.75 312.29 141.69 313.86 146.64
  Q 314.60 148.99 317.70 152.09
  Q 338.62 172.98 359.52 193.89
  C 364.38 198.75 369.02 200.75 374.41 195.41
  C 379.96 189.90 390.82 181.03 392.16 175.56
  C 393.54 169.97 387.86 164.02 382.05 165.33
  Q 379.67 165.87 376.65 168.81
  Q 372.55 172.80 368.45 176.81
  A 1.00 1.00 0.0 0 1 367.05 176.81"
/>
<path stroke="#fcaeb4" vector-effect="non-scaling-stroke" d="
  M 291.83 167.58
  C 285.95 166.11 280.05 172.55 281.86 178.40
  Q 282.55 180.65 285.95 184.05
  Q 306.61 204.76 327.31 225.43
  C 331.78 229.89 336.45 232.70 341.79 228.03
  C 342.83 227.12 358.99 212.98 360.38 207.47
  C 361.90 201.41 355.37 195.51 349.55 197.38
  Q 347.17 198.14 343.95 201.46
  Q 340.35 205.18 336.46 208.68
  A 1.00 1.00 0.0 0 1 335.08 208.64
  Q 316.80 190.24 298.43 172.09
  Q 294.55 168.26 291.83 167.58"
/>
<path stroke="#fcaeb4" vector-effect="non-scaling-stroke" d="
  M 271.62 226.49
  L 262.85 217.73
  A 1.00 1.00 0.0 0 1 262.85 216.31
  C 266.70 212.50 276.23 204.57 277.36 199.48
  C 278.62 193.80 272.56 187.93 266.94 189.47
  Q 264.44 190.15 260.84 193.64
  Q 248.48 205.59 243.97 210.46
  C 238.25 216.65 241.75 221.39 246.88 226.52
  Q 267.79 247.41 288.68 268.31
  C 293.56 273.18 298.71 270.71 303.14 266.39
  Q 311.57 258.19 319.75 249.75
  C 326.54 242.73 319.81 231.46 310.91 235.28
  C 306.12 237.34 299.83 245.08 295.67 249.15
  A 1.01 1.01 0.0 0 1 294.26 249.14
  L 285.48 240.35
  A 1.00 1.00 0.0 0 1 285.47 238.94
  Q 290.87 233.49 296.31 228.03
  C 303.91 220.41 292.72 207.16 282.84 216.86
  Q 277.94 221.69 273.02 226.50
  A 1.00 0.99 45.2 0 1 271.62 226.49"
/>
<path stroke="#fcaeb4" vector-effect="non-scaling-stroke" d="
  M 243.24 239.99
  C 243.25 234.65 238.31 229.73 232.99 230.98
  C 207.33 237.02 192.24 263.34 203.32 287.94
  C 214.81 313.43 247.24 319.99 268.13 301.66
  Q 280.80 290.54 280.13 273.61
  C 279.73 263.53 266.69 261.20 263.35 270.42
  C 262.13 273.79 263.36 278.50 261.26 282.50
  C 252.14 299.87 226.18 298.33 218.86 279.93
  C 213.63 266.76 220.87 253.14 234.17 248.72
  C 239.15 247.06 243.23 245.33 243.24 239.99"
/>
<path stroke="#fcaeb4" vector-effect="non-scaling-stroke" d="
  M 195.47 320.02
  Q 171.81 316.00 148.22 311.71
  C 141.99 310.58 136.42 315.92 137.93 321.79
  Q 138.63 324.50 142.40 328.28
  Q 164.42 350.30 186.45 372.31
  C 193.47 379.32 206.47 368.00 197.78 359.22
  Q 185.82 347.13 174.15 335.53
  Q 172.34 333.73 174.85 334.17
  Q 195.93 337.89 216.96 341.79
  Q 222.24 342.76 224.59 342.27
  C 231.22 340.88 234.36 331.64 229.45 326.80
  Q 191.21 289.11 184.02 282.22
  C 177.55 276.03 166.69 282.59 169.78 291.12
  Q 170.59 293.37 173.79 296.50
  Q 185.05 307.52 196.17 318.66
  Q 197.94 320.44 195.47 320.02"
/>
<path stroke="#fcaeb4" vector-effect="non-scaling-stroke" d="
  M 144.71 402.92
  L 162.74 384.89
  A 0.98 0.97 -55.6 0 1 163.84 384.68
  C 167.81 386.40 174.22 390.09 178.36 389.41
  C 184.75 388.36 187.61 380.17 183.39 375.30
  C 181.86 373.53 178.95 372.26 176.92 371.34
  Q 167.85 367.22 121.75 346.46
  Q 116.47 344.08 113.94 344.05
  C 108.72 344.01 103.96 348.86 104.05 354.20
  Q 104.08 356.36 105.74 360.08
  Q 118.58 388.96 131.61 417.76
  Q 133.85 422.70 136.14 424.31
  C 140.74 427.53 148.58 424.27 149.29 418.33
  C 149.79 414.16 146.39 408.05 144.51 404.05
  A 1.00 0.99 55.3 0 1 144.71 402.92"
/>
<path stroke="#fcaeb4" vector-effect="non-scaling-stroke" d="
  M 44.95 425.25
  C 44.58 458.14 79.66 477.59 107.71 460.73
  Q 125.14 450.26 125.37 429.25
  C 125.49 418.95 112.24 415.47 108.62 425.06
  Q 108.18 426.20 108.01 430.54
  C 107.70 438.80 101.48 445.32 94.08 448.14
  C 83.43 452.22 70.81 447.49 65.51 437.65
  C 58.27 424.20 64.50 407.60 79.83 403.45
  Q 83.05 402.58 83.84 402.11
  C 91.85 397.36 87.90 384.49 79.02 385.73
  C 60.20 388.38 45.16 406.21 44.95 425.25"
/>
<path stroke="#fcaeb4" vector-effect="non-scaling-stroke" d="
  M 429.57 92.18
  Q 434.79 97.26 440.04 102.39
  A 1.00 1.00 0.0 0 0 441.43 102.40
  Q 447.62 96.51 448.70 94.68
  C 456.12 82.08 444.70 68.42 433.81 62.69
  C 422.94 56.97 416.26 62.99 409.54 70.78
  A 1.00 0.99 -47.0 0 0 409.58 72.13
  Q 419.47 82.35 429.57 92.18"
/>
<path stroke="#ece9f3" vector-effect="non-scaling-stroke" d="
  M 278.11 87.49
  Q 228.77 96.30 192.29 128.54
  C 152.82 163.42 131.85 215.01 135.42 268.01
  C 135.47 268.83 135.14 269.50 135.79 270.25"
/>
<path stroke="#ee91a2" vector-effect="non-scaling-stroke" d="
  M 200.84 417.30
  Q 236.68 429.50 274.75 425.50
  Q 276.94 425.27 278.32 424.58"
/>
<path stroke="#fb9fa7" vector-effect="non-scaling-stroke" d="
  M 278.32 424.58
  Q 309.70 420.96 337.57 405.58
  C 410.21 365.50 443.98 279.97 417.21 201.00"
/>
<path stroke="#ece9f3" vector-effect="non-scaling-stroke" d="
  M 278.32 424.58
  Q 245.28 418.59 216.58 401.37"
/>
<path stroke="#fcaeb4" vector-effect="non-scaling-stroke" d="
  M 136.40 385.84
  A 0.32 0.32 0.0 0 0 136.92 385.94
  L 145.89 377.00
  A 0.32 0.32 0.0 0 0 145.79 376.48
  L 129.51 369.11
  A 0.32 0.32 0.0 0 0 129.08 369.53
  L 136.40 385.84"
/>
</g>
<path fill="#fd4755" d="
  M 249.56 0.00
  L 262.31 0.00
  Q 322.30 1.77 375.27 29.47
  C 375.58 29.64 375.59 29.75 375.79 30.00
  L 311.12 94.91
  Q 294.73 88.82 278.11 87.49
  Q 270.78 85.67 260.50 85.53
  C 192.89 84.58 130.29 121.49 101.59 183.51
  Q 73.19 244.90 94.66 311.14
  L 29.87 376.24
  Q 1.65 322.38 0.00 261.44
  L 0.00 251.19
  C 3.40 113.27 111.99 4.67 249.56 0.00
  Z"
/>
<path fill="#fe646f" d="
  M 421.31 0.00
  L 424.81 0.00
  C 436.92 0.93 444.88 5.43 453.78 14.24
  Q 492.56 52.64 501.29 61.72
  Q 511.11 71.94 512.00 87.81
  L 512.00 90.56
  C 510.74 111.44 495.72 122.03 482.21 135.75
  Q 449.90 167.92 417.77 200.27
  Q 417.45 200.60 417.21 201.00
  C 415.80 200.77 234.02 383.90 216.58 401.37
  L 200.84 417.30
  L 135.75 482.21
  C 122.24 495.50 111.48 510.81 90.44 512.00
  L 87.19 512.00
  Q 71.21 510.76 59.95 499.54
  Q 35.54 475.21 11.21 450.79
  Q 1.04 440.58 0.00 424.44
  L 0.00 420.69
  C 1.61 401.07 13.85 392.04 29.87 376.24
  L 94.66 311.14
  L 135.79 270.25
  L 311.12 94.91
  L 375.79 30.00
  C 389.52 16.80 400.42 1.37 421.31 0.00
  Z
  M 389.94 65.69
  C 385.84 70.36 387.69 74.98 391.81 79.07
  Q 411.98 99.10 432.09 119.20
  C 436.92 124.02 441.32 126.55 447.05 121.56
  C 452.06 117.19 462.00 107.25 465.26 100.69
  C 479.76 71.49 442.66 33.14 413.42 45.44
  C 405.14 48.92 395.94 58.84 389.94 65.69
  Z
  M 371.22 107.92
  Q 376.88 102.33 382.42 96.61
  C 389.81 88.97 382.88 77.24 373.51 81.81
  Q 371.71 82.69 368.29 86.10
  Q 361.76 92.60 355.26 99.12
  C 350.27 104.11 346.42 109.27 352.32 115.19
  Q 374.49 137.40 396.71 159.54
  C 402.15 164.96 407.22 162.34 411.80 157.80
  C 417.48 152.15 429.58 142.09 430.93 136.49
  C 432.30 130.79 426.38 124.83 420.64 126.30
  C 415.63 127.59 407.87 136.94 404.09 140.79
  A 1.00 1.00 0.0 0 1 402.67 140.79
  L 393.85 131.98
  A 1.00 1.00 0.0 0 1 393.85 130.57
  C 397.45 126.97 405.72 120.19 406.81 115.45
  C 408.23 109.31 402.81 103.86 396.57 105.15
  C 392.02 106.09 384.84 114.72 381.44 118.15
  A 1.00 1.00 0.0 0 1 380.02 118.15
  L 371.21 109.34
  A 1.00 1.00 0.0 0 1 371.22 107.92
  Z
  M 367.05 176.81
  Q 348.16 158.14 329.44 139.30
  C 326.72 136.56 324.20 135.08 320.51 135.79
  C 315.57 136.75 312.29 141.69 313.86 146.64
  Q 314.60 148.99 317.70 152.09
  Q 338.62 172.98 359.52 193.89
  C 364.38 198.75 369.02 200.75 374.41 195.41
  C 379.96 189.90 390.82 181.03 392.16 175.56
  C 393.54 169.97 387.86 164.02 382.05 165.33
  Q 379.67 165.87 376.65 168.81
  Q 372.55 172.80 368.45 176.81
  A 1.00 1.00 0.0 0 1 367.05 176.81
  Z
  M 291.83 167.58
  C 285.95 166.11 280.05 172.55 281.86 178.40
  Q 282.55 180.65 285.95 184.05
  Q 306.61 204.76 327.31 225.43
  C 331.78 229.89 336.45 232.70 341.79 228.03
  C 342.83 227.12 358.99 212.98 360.38 207.47
  C 361.90 201.41 355.37 195.51 349.55 197.38
  Q 347.17 198.14 343.95 201.46
  Q 340.35 205.18 336.46 208.68
  A 1.00 1.00 0.0 0 1 335.08 208.64
  Q 316.80 190.24 298.43 172.09
  Q 294.55 168.26 291.83 167.58
  Z
  M 271.62 226.49
  L 262.85 217.73
  A 1.00 1.00 0.0 0 1 262.85 216.31
  C 266.70 212.50 276.23 204.57 277.36 199.48
  C 278.62 193.80 272.56 187.93 266.94 189.47
  Q 264.44 190.15 260.84 193.64
  Q 248.48 205.59 243.97 210.46
  C 238.25 216.65 241.75 221.39 246.88 226.52
  Q 267.79 247.41 288.68 268.31
  C 293.56 273.18 298.71 270.71 303.14 266.39
  Q 311.57 258.19 319.75 249.75
  C 326.54 242.73 319.81 231.46 310.91 235.28
  C 306.12 237.34 299.83 245.08 295.67 249.15
  A 1.01 1.01 0.0 0 1 294.26 249.14
  L 285.48 240.35
  A 1.00 1.00 0.0 0 1 285.47 238.94
  Q 290.87 233.49 296.31 228.03
  C 303.91 220.41 292.72 207.16 282.84 216.86
  Q 277.94 221.69 273.02 226.50
  A 1.00 0.99 45.2 0 1 271.62 226.49
  Z
  M 243.24 239.99
  C 243.25 234.65 238.31 229.73 232.99 230.98
  C 207.33 237.02 192.24 263.34 203.32 287.94
  C 214.81 313.43 247.24 319.99 268.13 301.66
  Q 280.80 290.54 280.13 273.61
  C 279.73 263.53 266.69 261.20 263.35 270.42
  C 262.13 273.79 263.36 278.50 261.26 282.50
  C 252.14 299.87 226.18 298.33 218.86 279.93
  C 213.63 266.76 220.87 253.14 234.17 248.72
  C 239.15 247.06 243.23 245.33 243.24 239.99
  Z
  M 195.47 320.02
  Q 171.81 316.00 148.22 311.71
  C 141.99 310.58 136.42 315.92 137.93 321.79
  Q 138.63 324.50 142.40 328.28
  Q 164.42 350.30 186.45 372.31
  C 193.47 379.32 206.47 368.00 197.78 359.22
  Q 185.82 347.13 174.15 335.53
  Q 172.34 333.73 174.85 334.17
  Q 195.93 337.89 216.96 341.79
  Q 222.24 342.76 224.59 342.27
  C 231.22 340.88 234.36 331.64 229.45 326.80
  Q 191.21 289.11 184.02 282.22
  C 177.55 276.03 166.69 282.59 169.78 291.12
  Q 170.59 293.37 173.79 296.50
  Q 185.05 307.52 196.17 318.66
  Q 197.94 320.44 195.47 320.02
  Z
  M 144.71 402.92
  L 162.74 384.89
  A 0.98 0.97 -55.6 0 1 163.84 384.68
  C 167.81 386.40 174.22 390.09 178.36 389.41
  C 184.75 388.36 187.61 380.17 183.39 375.30
  C 181.86 373.53 178.95 372.26 176.92 371.34
  Q 167.85 367.22 121.75 346.46
  Q 116.47 344.08 113.94 344.05
  C 108.72 344.01 103.96 348.86 104.05 354.20
  Q 104.08 356.36 105.74 360.08
  Q 118.58 388.96 131.61 417.76
  Q 133.85 422.70 136.14 424.31
  C 140.74 427.53 148.58 424.27 149.29 418.33
  C 149.79 414.16 146.39 408.05 144.51 404.05
  A 1.00 0.99 55.3 0 1 144.71 402.92
  Z
  M 44.95 425.25
  C 44.58 458.14 79.66 477.59 107.71 460.73
  Q 125.14 450.26 125.37 429.25
  C 125.49 418.95 112.24 415.47 108.62 425.06
  Q 108.18 426.20 108.01 430.54
  C 107.70 438.80 101.48 445.32 94.08 448.14
  C 83.43 452.22 70.81 447.49 65.51 437.65
  C 58.27 424.20 64.50 407.60 79.83 403.45
  Q 83.05 402.58 83.84 402.11
  C 91.85 397.36 87.90 384.49 79.02 385.73
  C 60.20 388.38 45.16 406.21 44.95 425.25
  Z"
/>
<path fill="#f9f7f8" d="
  M 389.94 65.69
  C 395.94 58.84 405.14 48.92 413.42 45.44
  C 442.66 33.14 479.76 71.49 465.26 100.69
  C 462.00 107.25 452.06 117.19 447.05 121.56
  C 441.32 126.55 436.92 124.02 432.09 119.20
  Q 411.98 99.10 391.81 79.07
  C 387.69 74.98 385.84 70.36 389.94 65.69
  Z
  M 429.57 92.18
  Q 434.79 97.26 440.04 102.39
  A 1.00 1.00 0.0 0 0 441.43 102.40
  Q 447.62 96.51 448.70 94.68
  C 456.12 82.08 444.70 68.42 433.81 62.69
  C 422.94 56.97 416.26 62.99 409.54 70.78
  A 1.00 0.99 -47.0 0 0 409.58 72.13
  Q 419.47 82.35 429.57 92.18
  Z"
/>
<path fill="#fe646f" d="
  M 429.57 92.18
  Q 419.47 82.35 409.58 72.13
  A 1.00 0.99 -47.0 0 1 409.54 70.78
  C 416.26 62.99 422.94 56.97 433.81 62.69
  C 444.70 68.42 456.12 82.08 448.70 94.68
  Q 447.62 96.51 441.43 102.40
  A 1.00 1.00 0.0 0 1 440.04 102.39
  Q 434.79 97.26 429.57 92.18
  Z"
/>
<path fill="#f9f7f8" d="
  M 371.21 109.34
  L 380.02 118.15
  A 1.00 1.00 0.0 0 0 381.44 118.15
  C 384.84 114.72 392.02 106.09 396.57 105.15
  C 402.81 103.86 408.23 109.31 406.81 115.45
  C 405.72 120.19 397.45 126.97 393.85 130.57
  A 1.00 1.00 0.0 0 0 393.85 131.98
  L 402.67 140.79
  A 1.00 1.00 0.0 0 0 404.09 140.79
  C 407.87 136.94 415.63 127.59 420.64 126.30
  C 426.38 124.83 432.30 130.79 430.93 136.49
  C 429.58 142.09 417.48 152.15 411.80 157.80
  C 407.22 162.34 402.15 164.96 396.71 159.54
  Q 374.49 137.40 352.32 115.19
  C 346.42 109.27 350.27 104.11 355.26 99.12
  Q 361.76 92.60 368.29 86.10
  Q 371.71 82.69 373.51 81.81
  C 382.88 77.24 389.81 88.97 382.42 96.61
  Q 376.88 102.33 371.22 107.92
  A 1.00 1.00 0.0 0 0 371.21 109.34
  Z"
/>
<path fill="#dedbee" d="
  M 278.11 87.49
  Q 228.77 96.30 192.29 128.54
  C 152.82 163.42 131.85 215.01 135.42 268.01
  C 135.47 268.83 135.14 269.50 135.79 270.25
  L 94.66 311.14
  Q 73.19 244.90 101.59 183.51
  C 130.29 121.49 192.89 84.58 260.50 85.53
  Q 270.78 85.67 278.11 87.49
  Z"
/>
<path fill="#f9f7f8" d="
  M 278.11 87.49
  Q 294.73 88.82 311.12 94.91
  L 135.79 270.25
  C 135.14 269.50 135.47 268.83 135.42 268.01
  C 131.85 215.01 152.82 163.42 192.29 128.54
  Q 228.77 96.30 278.11 87.49
  Z"
/>
<path fill="#f9f7f8" d="
  M 368.45 176.81
  Q 372.55 172.80 376.65 168.81
  Q 379.67 165.87 382.05 165.33
  C 387.86 164.02 393.54 169.97 392.16 175.56
  C 390.82 181.03 379.96 189.90 374.41 195.41
  C 369.02 200.75 364.38 198.75 359.52 193.89
  Q 338.62 172.98 317.70 152.09
  Q 314.60 148.99 313.86 146.64
  C 312.29 141.69 315.57 136.75 320.51 135.79
  C 324.20 135.08 326.72 136.56 329.44 139.30
  Q 348.16 158.14 367.05 176.81
  A 1.00 1.00 0.0 0 0 368.45 176.81
  Z"
/>
<path fill="#fd4755" d="
  M 482.21 135.75
  Q 510.40 189.87 512.00 251.06
  L 512.00 261.56
  C 507.44 399.22 399.55 508.71 260.94 512.00
  L 249.69 512.00
  Q 200.77 510.49 155.93 491.65
  C 149.77 489.06 142.51 485.29 135.75 482.21
  L 200.84 417.30
  Q 236.68 429.50 274.75 425.50
  Q 276.94 425.27 278.32 424.58
  Q 309.70 420.96 337.57 405.58
  C 410.21 365.50 443.98 279.97 417.21 201.00
  Q 417.45 200.60 417.77 200.27
  Q 449.90 167.92 482.21 135.75
  Z"
/>
<path fill="#f9f7f8" d="
  M 281.86 178.40
  C 280.05 172.55 285.95 166.11 291.83 167.58
  Q 294.55 168.26 298.43 172.09
  Q 316.80 190.24 335.08 208.64
  A 1.00 1.00 0.0 0 0 336.46 208.68
  Q 340.35 205.18 343.95 201.46
  Q 347.17 198.14 349.55 197.38
  C 355.37 195.51 361.90 201.41 360.38 207.47
  C 358.99 212.98 342.83 227.12 341.79 228.03
  C 336.45 232.70 331.78 229.89 327.31 225.43
  Q 306.61 204.76 285.95 184.05
  Q 282.55 180.65 281.86 178.40
  Z"
/>
<path fill="#f9f7f8" d="
  M 273.02 226.50
  Q 277.94 221.69 282.84 216.86
  C 292.72 207.16 303.91 220.41 296.31 228.03
  Q 290.87 233.49 285.47 238.94
  A 1.00 1.00 0.0 0 0 285.48 240.35
  L 294.26 249.14
  A 1.01 1.01 0.0 0 0 295.67 249.15
  C 299.83 245.08 306.12 237.34 310.91 235.28
  C 319.81 231.46 326.54 242.73 319.75 249.75
  Q 311.57 258.19 303.14 266.39
  C 298.71 270.71 293.56 273.18 288.68 268.31
  Q 267.79 247.41 246.88 226.52
  C 241.75 221.39 238.25 216.65 243.97 210.46
  Q 248.48 205.59 260.84 193.64
  Q 264.44 190.15 266.94 189.47
  C 272.56 187.93 278.62 193.80 277.36 199.48
  C 276.23 204.57 266.70 212.50 262.85 216.31
  A 1.00 1.00 0.0 0 0 262.85 217.73
  L 271.62 226.49
  A 1.00 0.99 45.2 0 0 273.02 226.50
  Z"
/>
<path fill="#f9f7f8" d="
  M 417.21 201.00
  C 443.98 279.97 410.21 365.50 337.57 405.58
  Q 309.70 420.96 278.32 424.58
  Q 245.28 418.59 216.58 401.37
  C 234.02 383.90 415.80 200.77 417.21 201.00
  Z"
/>
<path fill="#f9f7f8" d="
  M 232.99 230.98
  C 238.31 229.73 243.25 234.65 243.24 239.99
  C 243.23 245.33 239.15 247.06 234.17 248.72
  C 220.87 253.14 213.63 266.76 218.86 279.93
  C 226.18 298.33 252.14 299.87 261.26 282.50
  C 263.36 278.50 262.13 273.79 263.35 270.42
  C 266.69 261.20 279.73 263.53 280.13 273.61
  Q 280.80 290.54 268.13 301.66
  C 247.24 319.99 214.81 313.43 203.32 287.94
  C 192.24 263.34 207.33 237.02 232.99 230.98
  Z"
/>
<path fill="#f9f7f8" d="
  M 196.17 318.66
  Q 185.05 307.52 173.79 296.50
  Q 170.59 293.37 169.78 291.12
  C 166.69 282.59 177.55 276.03 184.02 282.22
  Q 191.21 289.11 229.45 326.80
  C 234.36 331.64 231.22 340.88 224.59 342.27
  Q 222.24 342.76 216.96 341.79
  Q 195.93 337.89 174.85 334.17
  Q 172.34 333.73 174.15 335.53
  Q 185.82 347.13 197.78 359.22
  C 206.47 368.00 193.47 379.32 186.45 372.31
  Q 164.42 350.30 142.40 328.28
  Q 138.63 324.50 137.93 321.79
  C 136.42 315.92 141.99 310.58 148.22 311.71
  Q 171.81 316.00 195.47 320.02
  Q 197.94 320.44 196.17 318.66
  Z"
/>
<path fill="#f9f7f8" d="
  M 144.51 404.05
  C 146.39 408.05 149.79 414.16 149.29 418.33
  C 148.58 424.27 140.74 427.53 136.14 424.31
  Q 133.85 422.70 131.61 417.76
  Q 118.58 388.96 105.74 360.08
  Q 104.08 356.36 104.05 354.20
  C 103.96 348.86 108.72 344.01 113.94 344.05
  Q 116.47 344.08 121.75 346.46
  Q 167.85 367.22 176.92 371.34
  C 178.95 372.26 181.86 373.53 183.39 375.30
  C 187.61 380.17 184.75 388.36 178.36 389.41
  C 174.22 390.09 167.81 386.40 163.84 384.68
  A 0.98 0.97 -55.6 0 0 162.74 384.89
  L 144.71 402.92
  A 1.00 0.99 55.3 0 0 144.51 404.05
  Z
  M 136.40 385.84
  A 0.32 0.32 0.0 0 0 136.92 385.94
  L 145.89 377.00
  A 0.32 0.32 0.0 0 0 145.79 376.48
  L 129.51 369.11
  A 0.32 0.32 0.0 0 0 129.08 369.53
  L 136.40 385.84
  Z"
/>
<path fill="#fe646f" d="
  M 136.40 385.84
  L 129.08 369.53
  A 0.32 0.32 0.0 0 1 129.51 369.11
  L 145.79 376.48
  A 0.32 0.32 0.0 0 1 145.89 377.00
  L 136.92 385.94
  A 0.32 0.32 0.0 0 1 136.40 385.84
  Z"
/>
<path fill="#f9f7f8" d="
  M 107.71 460.73
  C 79.66 477.59 44.58 458.14 44.95 425.25
  C 45.16 406.21 60.20 388.38 79.02 385.73
  C 87.90 384.49 91.85 397.36 83.84 402.11
  Q 83.05 402.58 79.83 403.45
  C 64.50 407.60 58.27 424.20 65.51 437.65
  C 70.81 447.49 83.43 452.22 94.08 448.14
  C 101.48 445.32 107.70 438.80 108.01 430.54
  Q 108.18 426.20 108.62 425.06
  C 112.24 415.47 125.49 418.95 125.37 429.25
  Q 125.14 450.26 107.71 460.73
  Z"
/>
<path fill="#dedbee" d="
  M 216.58 401.37
  Q 245.28 418.59 278.32 424.58
  Q 276.94 425.27 274.75 425.50
  Q 236.68 429.50 200.84 417.30
  L 216.58 401.37
  Z"
/>
</svg>
