<?xml version="1.0" encoding="UTF-8" standalone="no"?>
<!DOCTYPE svg PUBLIC "-//W3C//DTD SVG 1.1//EN" "http://www.w3.org/Graphics/SVG/1.1/DTD/svg11.dtd">
<svg xmlns="http://www.w3.org/2000/svg" version="1.1" viewBox="0.00 0.00 512.00 512.00">
<path fill="#78a55a" d="
  M 469.22 255.99
  A 213.22 213.22 0.0 0 1 256.00 469.21
  A 213.22 213.22 0.0 0 1 42.78 255.99
  A 213.22 213.22 0.0 0 1 256.00 42.77
  A 213.22 213.22 0.0 0 1 469.22 255.99
  Z
  M 256.34 225.54
  A 0.48 0.48 0.0 0 1 255.66 225.54
  L 196.72 166.59
  A 0.48 0.48 0.0 0 0 196.04 166.59
  L 166.59 196.04
  A 0.48 0.48 0.0 0 0 166.59 196.72
  L 225.54 255.66
  A 0.48 0.48 0.0 0 1 225.54 256.34
  L 166.59 315.28
  A 0.48 0.48 0.0 0 0 166.59 315.96
  L 196.04 345.41
  A 0.48 0.48 0.0 0 0 196.72 345.41
  L 255.66 286.46
  A 0.48 0.48 0.0 0 1 256.34 286.46
  L 315.29 345.41
  A 0.48 0.48 0.0 0 0 315.97 345.41
  L 345.41 315.96
  A 0.48 0.48 0.0 0 0 345.41 315.28
  L 286.46 256.34
  A 0.48 0.48 0.0 0 1 286.46 255.66
  L 345.41 196.71
  A 0.48 0.48 0.0 0 0 345.41 196.03
  L 315.97 166.59
  A 0.48 0.48 0.0 0 0 315.29 166.59
  L 256.34 225.54
  Z"
/>
</svg>
