<?xml version="1.0" encoding="UTF-8" standalone="no"?>
<!DOCTYPE svg PUBLIC "-//W3C//DTD SVG 1.1//EN" "http://www.w3.org/Graphics/SVG/1.1/DTD/svg11.dtd">
<svg xmlns="http://www.w3.org/2000/svg" version="1.1" viewBox="0 0 512 512">
<path stroke="#b02b2b" stroke-width="2.00" fill="none" stroke-linecap="butt" vector-effect="non-scaling-stroke" d="
  M 313.98 287.45
  C 310.83 287.43 308.75 285.95 308.75 282.75
  Q 308.76 210.13 308.74 137.52
  Q 308.74 127.68 307.35 122.75
  C 303.70 109.86 290.65 97.31 276.50 97.27
  Q 259.22 97.21 241.94 97.27
  Q 232.83 97.30 228.32 98.63
  C 217.17 101.91 208.03 111.06 204.75 122.10
  Q 203.25 127.17 203.25 139.05
  Q 203.26 209.99 203.24 280.92
  C 203.24 284.98 202.52 287.53 198.00 287.51
  Q 176.37 287.46 154.72 287.57
  Q 153.06 287.58 154.10 288.88
  L 255.24 413.93
  A 1.00 0.99 -44.9 0 0 256.79 413.93
  L 357.96 288.79
  Q 359.02 287.48 357.34 287.49
  Q 335.80 287.55 313.98 287.45"
/>
<path fill="#ef3f3f" d="
  M 245.06 0.00
  L 266.81 0.00
  C 333.30 3.62 394.55 30.36 440.34 78.29
  Q 506.62 147.69 512.00 245.56
  L 512.00 266.31
  C 505.93 399.56 400.62 505.95 266.44 512.00
  L 244.69 512.00
  Q 158.36 507.18 92.80 453.30
  C 36.33 406.89 3.02 338.47 0.00 265.69
  L 0.00 244.19
  C 7.75 110.66 111.11 6.97 245.06 0.00
  Z
  M 313.98 287.45
  C 310.83 287.43 308.75 285.95 308.75 282.75
  Q 308.76 210.13 308.74 137.52
  Q 308.74 127.68 307.35 122.75
  C 303.70 109.86 290.65 97.31 276.50 97.27
  Q 259.22 97.21 241.94 97.27
  Q 232.83 97.30 228.32 98.63
  C 217.17 101.91 208.03 111.06 204.75 122.10
  Q 203.25 127.17 203.25 139.05
  Q 203.26 209.99 203.24 280.92
  C 203.24 284.98 202.52 287.53 198.00 287.51
  Q 176.37 287.46 154.72 287.57
  Q 153.06 287.58 154.10 288.88
  L 255.24 413.93
  A 1.00 0.99 -44.9 0 0 256.79 413.93
  L 357.96 288.79
  Q 359.02 287.48 357.34 287.49
  Q 335.80 287.55 313.98 287.45
  Z"
/>
<path fill="#711716" d="
  M 313.98 287.45
  Q 335.80 287.55 357.34 287.49
  Q 359.02 287.48 357.96 288.79
  L 256.79 413.93
  A 1.00 0.99 -44.9 0 1 255.24 413.93
  L 154.10 288.88
  Q 153.06 287.58 154.72 287.57
  Q 176.37 287.46 198.00 287.51
  C 202.52 287.53 203.24 284.98 203.24 280.92
  Q 203.26 209.99 203.25 139.05
  Q 203.25 127.17 204.75 122.10
  C 208.03 111.06 217.17 101.91 228.32 98.63
  Q 232.83 97.30 241.94 97.27
  Q 259.22 97.21 276.50 97.27
  C 290.65 97.31 303.70 109.86 307.35 122.75
  Q 308.74 127.68 308.74 137.52
  Q 308.76 210.13 308.75 282.75
  C 308.75 285.95 310.83 287.43 313.98 287.45
  Z"
/>
</svg>
