<?xml version="1.0" encoding="UTF-8" standalone="no"?>
<!DOCTYPE svg PUBLIC "-//W3C//DTD SVG 1.1//EN" "http://www.w3.org/Graphics/SVG/1.1/DTD/svg11.dtd">
<svg xmlns="http://www.w3.org/2000/svg" version="1.1" viewBox="0 0 512 512">
<g stroke-width="2.00" fill="none" stroke-linecap="butt">
<path stroke="#f592a0" vector-effect="non-scaling-stroke" d="
  M 146.93 159.83
  A 1.00 1.00 0.0 0 1 146.53 161.50
  Q 142.03 162.91 138.41 165.99
  Q 134.79 169.08 132.77 173.90
  Q 126.99 187.66 137.84 199.09
  A 1.00 0.99 58.8 0 1 137.44 200.72
  Q 131.39 202.79 127.39 207.36
  Q 123.06 212.29 122.16 219.20
  Q 120.76 229.82 128.68 238.10
  A 0.99 0.99 0.0 0 1 128.29 239.73
  Q 118.28 243.25 114.51 252.53
  C 109.98 263.70 115.57 277.87 127.41 281.93
  Q 131.27 283.25 140.23 283.24
  Q 176.46 283.24 212.05 283.48
  A 1.00 1.00 0.0 0 1 212.94 284.92
  Q 201.30 308.46 196.10 333.93
  C 191.13 358.30 194.54 390.41 227.48 390.52
  C 232.62 390.54 234.16 384.00 234.51 380.00
  Q 236.43 358.05 236.17 352.68
  C 235.52 339.18 244.68 330.80 254.44 321.96
  Q 269.93 307.93 285.57 294.07
  C 290.96 289.29 300.41 280.28 303.72 271.62
  Q 305.02 268.23 305.02 262.21
  Q 304.99 203.32 305.00 144.41
  C 305.00 130.54 300.69 122.83 285.76 122.66
  Q 226.96 121.97 168.16 121.30
  Q 159.83 121.21 156.41 122.09
  C 146.54 124.65 140.09 133.22 139.78 143.33
  Q 139.50 152.63 146.93 159.83"
/>
<path stroke="#f592a0" vector-effect="non-scaling-stroke" d="
  M 399.23 139.35
  A 16.62 16.62 0.0 0 0 382.61 122.73
  L 338.11 122.73
  A 16.62 16.62 0.0 0 0 321.49 139.35
  L 321.49 266.87
  A 16.62 16.62 0.0 0 0 338.11 283.49
  L 382.61 283.49
  A 16.62 16.62 0.0 0 0 399.23 266.87
  L 399.23 139.35"
/>
</g>
<path fill="#eb2540" d="
  M 249.56 0.00
  L 262.31 0.00
  C 399.71 4.51 508.82 113.27 512.00 251.31
  L 512.00 261.56
  C 508.18 399.12 399.07 508.33 261.44 512.00
  L 249.19 512.00
  C 112.20 507.29 3.79 398.86 0.00 261.69
  L 0.00 250.94
  C 2.21 182.76 28.71 119.56 77.65 72.51
  Q 148.78 4.13 249.56 0.00
  Z
  M 146.93 159.83
  A 1.00 1.00 0.0 0 1 146.53 161.50
  Q 142.03 162.91 138.41 165.99
  Q 134.79 169.08 132.77 173.90
  Q 126.99 187.66 137.84 199.09
  A 1.00 0.99 58.8 0 1 137.44 200.72
  Q 131.39 202.79 127.39 207.36
  Q 123.06 212.29 122.16 219.20
  Q 120.76 229.82 128.68 238.10
  A 0.99 0.99 0.0 0 1 128.29 239.73
  Q 118.28 243.25 114.51 252.53
  C 109.98 263.70 115.57 277.87 127.41 281.93
  Q 131.27 283.25 140.23 283.24
  Q 176.46 283.24 212.05 283.48
  A 1.00 1.00 0.0 0 1 212.94 284.92
  Q 201.30 308.46 196.10 333.93
  C 191.13 358.30 194.54 390.41 227.48 390.52
  C 232.62 390.54 234.16 384.00 234.51 380.00
  Q 236.43 358.05 236.17 352.68
  C 235.52 339.18 244.68 330.80 254.44 321.96
  Q 269.93 307.93 285.57 294.07
  C 290.96 289.29 300.41 280.28 303.72 271.62
  Q 305.02 268.23 305.02 262.21
  Q 304.99 203.32 305.00 144.41
  C 305.00 130.54 300.69 122.83 285.76 122.66
  Q 226.96 121.97 168.16 121.30
  Q 159.83 121.21 156.41 122.09
  C 146.54 124.65 140.09 133.22 139.78 143.33
  Q 139.50 152.63 146.93 159.83
  Z
  M 399.23 139.35
  A 16.62 16.62 0.0 0 0 382.61 122.73
  L 338.11 122.73
  A 16.62 16.62 0.0 0 0 321.49 139.35
  L 321.49 266.87
  A 16.62 16.62 0.0 0 0 338.11 283.49
  L 382.61 283.49
  A 16.62 16.62 0.0 0 0 399.23 266.87
  L 399.23 139.35
  Z"
/>
<path fill="#ffffff" d="
  M 146.93 159.83
  Q 139.50 152.63 139.78 143.33
  C 140.09 133.22 146.54 124.65 156.41 122.09
  Q 159.83 121.21 168.16 121.30
  Q 226.96 121.97 285.76 122.66
  C 300.69 122.83 305.00 130.54 305.00 144.41
  Q 304.99 203.32 305.02 262.21
  Q 305.02 268.23 303.72 271.62
  C 300.41 280.28 290.96 289.29 285.57 294.07
  Q 269.93 307.93 254.44 321.96
  C 244.68 330.80 235.52 339.18 236.17 352.68
  Q 236.43 358.05 234.51 380.00
  C 234.16 384.00 232.62 390.54 227.48 390.52
  C 194.54 390.41 191.13 358.30 196.10 333.93
  Q 201.30 308.46 212.94 284.92
  A 1.00 1.00 0.0 0 0 212.05 283.48
  Q 176.46 283.24 140.23 283.24
  Q 131.27 283.25 127.41 281.93
  C 115.57 277.87 109.98 263.70 114.51 252.53
  Q 118.28 243.25 128.29 239.73
  A 0.99 0.99 0.0 0 0 128.68 238.10
  Q 120.76 229.82 122.16 219.20
  Q 123.06 212.29 127.39 207.36
  Q 131.39 202.79 137.44 200.72
  A 1.00 0.99 58.8 0 0 137.84 199.09
  Q 126.99 187.66 132.77 173.90
  Q 134.79 169.08 138.41 165.99
  Q 142.03 162.91 146.53 161.50
  A 1.00 1.00 0.0 0 0 146.93 159.83
  Z"
/>
<rect fill="#ffffff" x="321.49" y="122.73" width="77.74" height="160.76" rx="16.62"/>
</svg>
