<?xml version="1.0" encoding="UTF-8" standalone="no"?>
<!DOCTYPE svg PUBLIC "-//W3C//DTD SVG 1.1//EN" "http://www.w3.org/Graphics/SVG/1.1/DTD/svg11.dtd">
<svg xmlns="http://www.w3.org/2000/svg" version="1.1" viewBox="0 0 512 512">
<g stroke-width="2.00" fill="none" stroke-linecap="butt">
<path stroke="#afe69b" vector-effect="non-scaling-stroke" d="
  M 298.83 227.57
  Q 308.64 206.45 314.36 183.58
  C 320.83 157.65 318.48 121.01 281.33 122.99
  A 1.02 1.01 -77.4 0 0 280.49 123.53
  Q 277.62 129.06 277.01 135.26
  Q 276.45 140.92 275.46 162.96
  C 274.94 174.60 267.02 182.17 258.57 189.81
  Q 241.89 204.89 225.19 219.95
  C 216.96 227.37 207.49 236.25 207.50 248.00
  Q 207.51 307.47 207.49 366.93
  C 207.49 375.67 208.80 382.73 216.82 386.30
  Q 220.53 387.94 230.93 388.07
  Q 288.86 388.76 346.81 389.30
  C 357.31 389.40 365.90 385.01 369.64 374.71
  Q 374.27 361.97 364.13 351.14
  A 1.00 1.00 0.0 0 1 364.50 349.52
  Q 378.60 344.14 379.79 330.11
  Q 380.25 324.70 378.30 320.11
  Q 376.42 315.72 372.95 312.38
  A 1.00 0.99 -32.2 0 1 373.33 310.72
  Q 377.65 309.25 381.06 306.43
  Q 384.67 303.43 386.74 298.66
  Q 392.60 285.15 381.92 273.64
  A 1.00 1.00 0.0 0 1 382.35 272.01
  Q 389.60 269.69 394.01 263.25
  C 402.28 251.18 395.92 234.11 381.91 229.96
  Q 378.61 228.99 371.50 228.99
  Q 335.62 229.01 299.74 228.99
  A 1.00 1.00 0.0 0 1 298.83 227.57"
/>
<path stroke="#afe69b" vector-effect="non-scaling-stroke" d="
  M 191.25 245.33
  A 16.57 16.57 0.0 0 0 174.68 228.76
  L 130.82 228.76
  A 16.57 16.57 0.0 0 0 114.25 245.33
  L 114.25 371.43
  A 16.57 16.57 0.0 0 0 130.82 388.00
  L 174.68 388.00
  A 16.57 16.57 0.0 0 0 191.25 371.43
  L 191.25 245.33"
/>
</g>
<path fill="#5ecd37" d="
  M 509.40 255.99
  A 253.40 253.40 0.0 0 1 256.00 509.39
  A 253.40 253.40 0.0 0 1 2.60 255.99
  A 253.40 253.40 0.0 0 1 256.00 2.59
  A 253.40 253.40 0.0 0 1 509.40 255.99
  Z
  M 298.83 227.57
  Q 308.64 206.45 314.36 183.58
  C 320.83 157.65 318.48 121.01 281.33 122.99
  A 1.02 1.01 -77.4 0 0 280.49 123.53
  Q 277.62 129.06 277.01 135.26
  Q 276.45 140.92 275.46 162.96
  C 274.94 174.60 267.02 182.17 258.57 189.81
  Q 241.89 204.89 225.19 219.95
  C 216.96 227.37 207.49 236.25 207.50 248.00
  Q 207.51 307.47 207.49 366.93
  C 207.49 375.67 208.80 382.73 216.82 386.30
  Q 220.53 387.94 230.93 388.07
  Q 288.86 388.76 346.81 389.30
  C 357.31 389.40 365.90 385.01 369.64 374.71
  Q 374.27 361.97 364.13 351.14
  A 1.00 1.00 0.0 0 1 364.50 349.52
  Q 378.60 344.14 379.79 330.11
  Q 380.25 324.70 378.30 320.11
  Q 376.42 315.72 372.95 312.38
  A 1.00 0.99 -32.2 0 1 373.33 310.72
  Q 377.65 309.25 381.06 306.43
  Q 384.67 303.43 386.74 298.66
  Q 392.60 285.15 381.92 273.64
  A 1.00 1.00 0.0 0 1 382.35 272.01
  Q 389.60 269.69 394.01 263.25
  C 402.28 251.18 395.92 234.11 381.91 229.96
  Q 378.61 228.99 371.50 228.99
  Q 335.62 229.01 299.74 228.99
  A 1.00 1.00 0.0 0 1 298.83 227.57
  Z
  M 191.25 245.33
  A 16.57 16.57 0.0 0 0 174.68 228.76
  L 130.82 228.76
  A 16.57 16.57 0.0 0 0 114.25 245.33
  L 114.25 371.43
  A 16.57 16.57 0.0 0 0 130.82 388.00
  L 174.68 388.00
  A 16.57 16.57 0.0 0 0 191.25 371.43
  L 191.25 245.33
  Z"
/>
<path fill="#ffffff" d="
  M 298.83 227.57
  A 1.00 1.00 0.0 0 0 299.74 228.99
  Q 335.62 229.01 371.50 228.99
  Q 378.61 228.99 381.91 229.96
  C 395.92 234.11 402.28 251.18 394.01 263.25
  Q 389.60 269.69 382.35 272.01
  A 1.00 1.00 0.0 0 0 381.92 273.64
  Q 392.60 285.15 386.74 298.66
  Q 384.67 303.43 381.06 306.43
  Q 377.65 309.25 373.33 310.72
  A 1.00 0.99 -32.2 0 0 372.95 312.38
  Q 376.42 315.72 378.30 320.11
  Q 380.25 324.70 379.79 330.11
  Q 378.60 344.14 364.50 349.52
  A 1.00 1.00 0.0 0 0 364.13 351.14
  Q 374.27 361.97 369.64 374.71
  C 365.90 385.01 357.31 389.40 346.81 389.30
  Q 288.86 388.76 230.93 388.07
  Q 220.53 387.94 216.82 386.30
  C 208.80 382.73 207.49 375.67 207.49 366.93
  Q 207.51 307.47 207.50 248.00
  C 207.49 236.25 216.96 227.37 225.19 219.95
  Q 241.89 204.89 258.57 189.81
  C 267.02 182.17 274.94 174.60 275.46 162.96
  Q 276.45 140.92 277.01 135.26
  Q 277.62 129.06 280.49 123.53
  A 1.02 1.01 -77.4 0 1 281.33 122.99
  C 318.48 121.01 320.83 157.65 314.36 183.58
  Q 308.64 206.45 298.83 227.57
  Z"
/>
<rect fill="#ffffff" x="114.25" y="228.76" width="77.00" height="159.24" rx="16.57"/>
</svg>
