<?xml version="1.0" encoding="UTF-8" standalone="no"?>
<!DOCTYPE svg PUBLIC "-//W3C//DTD SVG 1.1//EN" "http://www.w3.org/Graphics/SVG/1.1/DTD/svg11.dtd">
<svg xmlns="http://www.w3.org/2000/svg" version="1.1" viewBox="0 0 512 512">
<path stroke="#3f8e23" stroke-width="2.00" fill="none" stroke-linecap="butt" vector-effect="non-scaling-stroke" d="
  M 357.17 224.26
  Q 358.80 224.22 357.77 222.95
  L 256.78 98.07
  A 0.99 0.99 0.0 0 0 255.23 98.07
  L 154.34 222.84
  Q 153.02 224.46 155.11 224.47
  Q 176.24 224.53 197.74 224.49
  C 201.27 224.49 203.19 225.92 203.19 229.50
  Q 203.24 302.72 203.26 375.94
  Q 203.26 384.62 204.61 389.29
  C 208.42 402.52 221.59 414.72 236.00 414.74
  Q 253.40 414.78 270.79 414.73
  Q 278.88 414.71 283.44 413.37
  C 297.14 409.31 308.75 396.03 308.75 381.25
  Q 308.74 304.91 308.76 228.56
  C 308.76 225.70 311.64 224.42 314.34 224.45
  Q 335.34 224.71 357.17 224.26"
/>
<path fill="#5ecd37" d="
  M 244.81 0.00
  L 266.56 0.00
  C 401.43 6.14 506.56 113.25 512.00 247.31
  L 512.00 264.06
  C 509.73 330.94 481.61 394.69 433.69 440.42
  Q 363.70 507.22 265.44 512.00
  L 246.69 512.00
  C 111.74 506.56 6.37 400.09 0.00 265.94
  L 0.00 245.44
  C 6.42 112.18 111.06 6.60 244.81 0.00
  Z
  M 357.17 224.26
  Q 358.80 224.22 357.77 222.95
  L 256.78 98.07
  A 0.99 0.99 0.0 0 0 255.23 98.07
  L 154.34 222.84
  Q 153.02 224.46 155.11 224.47
  Q 176.24 224.53 197.74 224.49
  C 201.27 224.49 203.19 225.92 203.19 229.50
  Q 203.24 302.72 203.26 375.94
  Q 203.26 384.62 204.61 389.29
  C 208.42 402.52 221.59 414.72 236.00 414.74
  Q 253.40 414.78 270.79 414.73
  Q 278.88 414.71 283.44 413.37
  C 297.14 409.31 308.75 396.03 308.75 381.25
  Q 308.74 304.91 308.76 228.56
  C 308.76 225.70 311.64 224.42 314.34 224.45
  Q 335.34 224.71 357.17 224.26
  Z"
/>
<path fill="#204f0f" d="
  M 357.17 224.26
  Q 335.34 224.71 314.34 224.45
  C 311.64 224.42 308.76 225.70 308.76 228.56
  Q 308.74 304.91 308.75 381.25
  C 308.75 396.03 297.14 409.31 283.44 413.37
  Q 278.88 414.71 270.79 414.73
  Q 253.40 414.78 236.00 414.74
  C 221.59 414.72 208.42 402.52 204.61 389.29
  Q 203.26 384.62 203.26 375.94
  Q 203.24 302.72 203.19 229.50
  C 203.19 225.92 201.27 224.49 197.74 224.49
  Q 176.24 224.53 155.11 224.47
  Q 153.02 224.46 154.34 222.84
  L 255.23 98.07
  A 0.99 0.99 0.0 0 1 256.78 98.07
  L 357.77 222.95
  Q 358.80 224.22 357.17 224.26
  Z"
/>
</svg>
