<?xml version="1.0" encoding="UTF-8" standalone="no"?>
<!DOCTYPE svg PUBLIC "-//W3C//DTD SVG 1.1//EN" "http://www.w3.org/Graphics/SVG/1.1/DTD/svg11.dtd">
<svg xmlns="http://www.w3.org/2000/svg" version="1.1" viewBox="0.00 0.00 128.00 114.00">
<path fill="#78a55a" d="
  M 47.71 88.08
  L 45.86 87.86
  Q 45.38 87.81 45.04 87.46
  Q 43.96 86.37 42.34 86.89
  Q 41.87 87.04 41.63 86.61
  Q 41.25 85.94 41.69 85.05
  Q 41.88 84.66 41.63 84.30
  Q 40.58 82.79 38.79 83.53
  A 1.03 1.03 0.0 0 1 37.41 82.27
  Q 37.93 80.61 36.72 79.72
  Q 36.27 79.39 35.71 79.46
  L 34.35 79.63
  Q 33.69 79.71 33.73 79.05
  L 33.86 76.83
  Q 33.90 76.09 33.17 75.99
  L 30.63 75.63
  A 0.43 0.42 -83.8 0 1 30.26 75.16
  Q 30.44 73.07 29.12 71.39
  A 0.75 0.73 32.5 0 1 28.97 70.74
  Q 29.38 68.97 27.63 68.65
  Q 27.08 68.56 26.83 68.06
  C 10.75 35.62 39.22 1.13 73.97 9.13
  C 81.50 10.86 85.92 13.95 91.61 18.08
  Q 93.31 19.31 94.12 20.23
  C 106.62 34.37 109.34 53.37 100.19 69.39
  C 95.46 77.67 87.41 84.79 79.26 90.25
  Q 76.84 91.88 74.68 93.83
  C 70.76 97.38 68.56 104.31 66.99 109.25
  A 0.65 0.65 0.0 0 1 66.32 109.71
  L 61.43 109.42
  Q 61.03 109.40 60.92 109.02
  C 59.49 104.41 57.24 96.88 52.91 94.30
  Q 52.78 94.23 52.52 93.50
  Q 52.34 93.03 52.75 92.66
  A 0.94 0.94 0.0 0 0 51.88 91.07
  Q 50.44 91.44 49.03 91.17
  Q 48.54 91.08 48.51 90.58
  L 48.44 88.86
  A 0.83 0.83 0.0 0 0 47.71 88.08
  Z
  M 75.25 49.34
  A 11.20 11.20 0.0 0 0 64.05 38.14
  A 11.20 11.20 0.0 0 0 52.85 49.34
  A 11.20 11.20 0.0 0 0 64.05 60.54
  A 11.20 11.20 0.0 0 0 75.25 49.34
  Z"
/>
<path fill="#78a55a" d="
  M 47.04 90.52
  Q 46.57 90.52 46.19 90.46
  A 0.42 0.42 0.0 0 1 46.25 89.63
  L 47.19 89.62
  A 0.49 0.42 -40.3 0 1 47.04 90.52
  Z"
/>
</svg>
