<?xml version="1.0" encoding="UTF-8" standalone="no"?>
<!DOCTYPE svg PUBLIC "-//W3C//DTD SVG 1.1//EN" "http://www.w3.org/Graphics/SVG/1.1/DTD/svg11.dtd">
<svg xmlns="http://www.w3.org/2000/svg" version="1.1" viewBox="0.00 0.00 52.00 52.00">
<path fill="#78a55a" d="
  M 0.00 46.52
  Q 0.00 46.13 0.00 45.74
  C 0.60 39.74 3.40 38.19 8.67 35.78
  C 15.60 32.61 10.41 27.17 7.56 23.20
  A 1.58 1.57 27.5 0 1 7.27 22.29
  C 7.27 14.69 5.30 9.84 13.91 6.15
  C 18.45 4.20 23.08 6.34 24.96 10.70
  C 26.33 13.86 25.72 18.63 25.55 22.34
  Q 25.52 22.85 25.24 23.27
  C 23.44 25.97 19.58 30.00 21.07 33.40
  Q 21.28 33.86 21.69 34.16
  L 24.28 36.05
  A 0.81 0.80 -68.2 0 1 24.60 36.80
  Q 24.00 41.43 25.51 45.76
  A 0.71 0.70 80.7 0 1 24.84 46.70
  L 0.00 46.52
  Z"
/>
<path fill="#78a55a" d="
  M 41.31 7.19
  C 46.37 11.42 44.71 17.14 44.74 22.63
  A 1.72 1.71 3.4 0 1 42.81 24.34
  Q 36.17 23.53 30.73 27.23
  A 1.43 1.43 0.0 0 1 28.53 25.74
  Q 30.28 17.76 28.36 9.78
  Q 28.24 9.30 28.64 9.00
  C 32.70 6.03 36.58 3.23 41.31 7.19
  Z"
/>
<path fill="#78a55a" d="
  M 52.00 39.07
  Q 52.06 39.30 52.00 39.58
  Q 51.30 49.87 41.17 52.00
  L 38.97 52.00
  C 18.32 48.85 30.23 19.16 46.39 29.87
  Q 51.33 33.15 52.00 39.07
  Z
  M 42.66 37.94
  A 1.18 1.18 0.0 0 1 41.77 37.06
  L 41.00 33.75
  A 1.18 1.18 0.0 0 0 38.70 33.75
  L 37.94 37.06
  A 1.18 1.18 0.0 0 1 37.06 37.95
  L 33.75 38.72
  A 1.18 1.18 0.0 0 0 33.75 41.02
  L 37.06 41.78
  A 1.18 1.18 0.0 0 1 37.95 42.66
  L 38.72 45.97
  A 1.18 1.18 0.0 0 0 41.02 45.97
  L 41.78 42.66
  A 1.18 1.18 0.0 0 1 42.66 41.77
  L 45.97 41.00
  A 1.18 1.18 0.0 0 0 45.97 38.70
  L 42.66 37.94
  Z"
/>
</svg>
